<svg width="46" height="46" viewBox="0 0 46 46" fill="none" xmlns="http://www.w3.org/2000/svg">
<g id="Adobe_Illustrator" clip-path="url(#clip0_1_1336)">
<path id="Vector" d="M8.14583 0H37.8542C42.3583 0 46 3.73504 46 8.3547V37.6453C46 42.265 42.3583 46 37.8542 46H8.14583C3.64167 46 0 42.265 0 37.6453V8.3547C0 3.73504 3.64167 0 8.14583 0Z" fill="#330000"/>
<path id="Vector_2" d="M22.2333 27.5219H15.1033L13.6466 32.1416C13.6083 32.3185 13.4549 32.4365 13.2824 32.4168H9.6791C9.46826 32.4168 9.41076 32.2989 9.46826 32.063L15.6399 13.8399C15.6974 13.6433 15.7549 13.4271 15.8316 13.1912C15.9083 12.7783 15.9466 12.3459 15.9466 11.9134C15.9274 11.8151 16.0041 11.7168 16.0999 11.6971H21.0641C21.2174 11.6971 21.2941 11.7561 21.3133 11.8544L28.3091 32.1023C28.3666 32.3185 28.3091 32.4168 28.1174 32.4168H24.1116C23.9774 32.4365 23.8433 32.3382 23.8049 32.2006L22.2333 27.5219ZM16.2149 23.5313H21.0833C20.9683 23.1185 20.8149 22.6271 20.6424 22.1159C20.4699 21.5852 20.2974 21.0151 20.1249 20.4253C19.9333 19.8159 19.7608 19.2262 19.5691 18.6168C19.3774 18.0074 19.2049 17.4373 19.0516 16.8672C18.8983 16.3168 18.7641 15.8057 18.6299 15.3339H18.5916C18.4191 16.1792 18.2083 17.0245 17.9399 17.8698C17.6524 18.8134 17.3649 19.7963 17.0583 20.7792C16.7899 21.7818 16.5024 22.7057 16.2149 23.5313ZM32.5833 15.1373C31.9508 15.157 31.3374 14.9014 30.8774 14.4493C30.4366 13.9578 30.2066 13.3091 30.2258 12.6407C30.2066 11.9724 30.4558 11.3433 30.9158 10.8912C31.3758 10.439 31.9891 10.2031 32.6216 10.2031C33.3691 10.2031 33.9441 10.439 34.3658 10.8912C34.7874 11.363 35.0174 11.992 34.9983 12.6407C35.0174 13.3091 34.7874 13.9578 34.3274 14.4493C33.8866 14.9211 33.2349 15.1766 32.5833 15.1373ZM30.4366 32.2006V17.0638C30.4366 16.8672 30.5133 16.7886 30.6858 16.7886H34.4808C34.6533 16.7886 34.7299 16.8869 34.7299 17.0638V32.2006C34.7299 32.4168 34.6533 32.5151 34.4808 32.5151H30.7241C30.5324 32.5151 30.4366 32.3971 30.4366 32.2006Z" fill="#FF9A00"/>
</g>
<defs>
<clipPath id="clip0_1_1336">
<rect width="46" height="46" fill="white"/>
</clipPath>
</defs>
</svg>
