<svg width="298" height="57" viewBox="0 0 298 57" fill="none" xmlns="http://www.w3.org/2000/svg">
<mask id="mask0_21_1617" style="mask-type:luminance" maskUnits="userSpaceOnUse" x="0" y="0" width="298" height="57">
<path d="M0 0H298V56.1681H0V0Z" fill="white"/>
</mask>
<g mask="url(#mask0_21_1617)">
<path d="M121.736 17.7087L119.181 12.8745L123.641 8.07919H121.504L118.329 11.5461L116.551 8.07919H114.631L117.026 12.6719L112.293 17.7106H114.428L117.879 14.0139L119.829 17.7106H121.736V17.7087ZM127.482 17.884C130.586 17.884 132.998 15.3714 132.998 12.1772C132.998 9.53608 130.976 7.91947 128.391 7.91947C125.287 7.91947 122.875 10.432 122.875 13.6068C122.875 16.2654 124.895 17.882 127.482 17.882V17.884ZM127.583 16.3803C125.922 16.3803 124.636 15.3266 124.636 13.5075C124.636 11.1819 126.282 9.42116 128.29 9.42116C129.936 9.42116 131.235 10.4885 131.235 12.294C131.235 14.6196 129.577 16.3803 127.583 16.3803ZM141.266 17.7087L138.19 12.6251L143.1 8.07724H140.905L136.256 12.5258L137.238 8.07724H135.549L133.426 17.7087H135.115L135.795 14.6332L136.905 13.5795L139.289 17.7087H141.266ZM150.235 17.7087L147.159 12.6251L152.068 8.07724H149.877L145.227 12.5258L146.209 8.07724H144.518L142.395 17.7087H144.086L144.764 14.6332L145.876 13.5795L148.26 17.7087H150.235ZM157.961 17.7087L158.279 16.2226H153.371L153.963 13.5503H158.772L159.103 12.0623H154.294L154.843 9.56529H159.751L160.084 8.07724H153.486L151.363 17.7087H157.961ZM161.329 17.7087L167.928 10.5762L166.341 17.7087H168.043L170.166 8.07724H168.432L161.98 15.0228L163.509 8.07724H161.82L159.697 17.7087H161.329ZM168.853 6.31456L168.261 5.73804C167.696 6.33014 166.975 6.69242 166.21 6.69242C165.415 6.69242 164.866 6.31651 164.578 5.73804L163.783 6.31651C164.202 7.09559 165.026 7.58642 166.05 7.58642C167.09 7.58642 168.101 7.09364 168.853 6.31456ZM178.481 17.7087L180.604 8.07724H178.913L178.046 12.0194H173.037L173.904 8.07724H172.213L170.09 17.7087H171.78L172.704 13.5075H177.715L176.79 17.7087H178.481ZM190.49 17.7087L192.598 8.07724H190.909L188.8 17.7087H190.49ZM182.633 8.07724L180.526 17.7087H184.727C187.615 17.7087 188.583 15.7162 188.583 14.2729C188.583 12.8569 187.573 11.6727 185.724 11.6727H183.529L184.324 8.07724H182.633ZM185.45 13.1608C186.258 13.1608 186.821 13.7237 186.821 14.4307C186.821 15.4123 186.084 16.2226 184.801 16.2226H182.534L183.212 13.1608H185.45ZM194.171 17.7087L200.772 10.5762L199.183 17.7087H200.887L203.01 8.07724H201.277L194.822 15.0228L196.353 8.07724H194.664L192.541 17.7087H194.171ZM201.695 6.31456L201.103 5.73804C200.54 6.33014 199.818 6.69242 199.052 6.69242C198.26 6.69242 197.71 6.31651 197.422 5.73804L196.627 6.31651C197.046 7.09559 197.87 7.58642 198.895 7.58642C199.935 7.58642 200.946 7.09364 201.695 6.31456ZM214.484 17.7087L211.409 12.6251L216.317 8.07724H214.122L209.473 12.5258L210.454 8.07724H208.766L206.643 17.7087H208.331L209.011 14.6332L210.123 13.5795L212.505 17.7087H214.484ZM214.948 17.884C216.81 17.884 218.21 17.2334 219.568 13.1452L220.767 9.56529H224.102L222.312 17.7087H224.001L226.11 8.07724H219.568L217.922 13.0303C216.954 15.8739 216.319 16.3803 215.279 16.3803L214.948 17.882V17.884ZM227.158 17.884C228.806 17.884 229.715 17.0601 230.566 15.9051L236.3 8.07724H234.279L230.379 13.6944L228.963 8.07724H227.144L229.18 15.052L229.108 15.1689C228.473 16.0336 228.083 16.3803 227.376 16.3803C227.158 16.373 226.944 16.3203 226.748 16.2258C226.551 16.1312 226.376 15.9968 226.235 15.8311L225.339 17.2179C225.57 17.5353 226.293 17.882 227.158 17.882V17.884ZM237.35 8.07724L235.241 17.7087H239.473C242.331 17.7087 243.299 15.7162 243.299 14.2729C243.299 12.8569 242.258 11.6727 240.455 11.6727H238.244L238.721 9.56529H243.632L243.949 8.07724H237.35ZM240.165 13.1608C240.975 13.1608 241.538 13.7237 241.538 14.4307C241.538 15.4123 240.802 16.2226 239.559 16.2226H237.249L237.927 13.1608H240.165Z" fill="#202124"/>
<path d="M105.391 26.8531C105.099 22.872 102.204 18.8928 95.9794 13.969C96.2696 13.3185 96.4137 10.6404 93.3013 8.97506C85.5572 4.92382 68.9101 0.650536 56.3863 0C56.5304 0.362274 56.8206 1.23095 57.0368 1.95356C43.1418 1.37508 29.315 1.81137 15.4902 3.11244C11.7252 3.47472 0 5.066 0 5.066L26.4928 16.2848C23.7426 16.9373 20.8444 17.5898 17.9501 18.3124C15.0558 19.0369 6.29695 22.0773 6.29695 22.0773L16.8652 24.3931C22.1494 25.552 37.0591 28.6645 43.358 30.1116C42.4893 32.6437 37.0591 50.5237 37.0591 50.5237C37.0591 50.5237 44.1527 43.0678 46.3965 40.9682C49.2206 38.3621 50.0893 37.4233 50.958 36.7709C50.5957 40.5338 49.9452 48.7142 49.7271 50.6678C49.5829 52.261 49.8712 53.9244 50.8119 54.9391C51.8247 55.8799 53.2738 56.3142 54.6489 56.1681C55.9555 55.889 57.1735 55.2931 58.1957 54.4327C62.467 50.958 73.1795 41.4746 82.2266 32.7897L83.7458 32.5716C89.9726 31.9211 95.9794 32.8618 96.9922 35.9742C97.6447 37.9999 96.9922 39.2308 96.3417 41.1863C98.079 39.6671 99.6722 38.0018 101.264 36.3365C103.001 34.1648 105.679 30.7622 105.389 26.8551L105.391 26.8531Z" fill="#201600"/>
<path d="M56.8911 11.2189H57.0353C56.673 10.4963 56.3828 9.77172 56.0945 9.26532C61.1605 8.68685 72.9598 9.26532 77.6635 12.2336C82.3692 15.2 86.6385 16.2148 89.8951 15.4902C89.5366 16.1828 89.0448 16.7977 88.448 17.2996C87.2599 17.5627 86.0344 17.6115 84.8291 17.4438C83.5261 19.6155 80.1975 19.3272 75.0574 21.9313C67.8199 25.5502 60.853 29.6868 54.2111 34.309C53.9949 36.843 53.5606 41.7649 53.4885 42.5615L63.6945 38.7965L61.5949 37.0592L70.3537 35.0336C71.8009 32.7898 82.5854 22.3656 84.3227 21.1366C84.9012 20.9905 85.4816 20.9185 86.0601 20.8464C88.3038 18.8208 90.8378 17.0094 93.5159 15.6343C93.588 15.4902 93.588 15.3461 93.588 15.2C93.7321 14.2593 93.66 12.9562 92.431 12.3057C71.6567 1.51927 33.1466 4.99399 12.4463 6.65928L31.9896 15.2C40.2256 13.4929 48.5335 12.1645 56.8911 11.2189Z" fill="#C2B59A"/>
<path d="M61.5964 37.0592L63.6961 38.7966L53.4901 42.4894C53.4901 42.4894 52.9096 49.0746 52.7655 50.5958C52.5474 52.6954 54.3568 53.346 56.0961 51.9709C59.8591 48.8584 68.7621 41.2585 77.0145 33.5845L61.5964 37.0592Z" fill="#747065"/>
<path d="M79.8425 18.6006C75.9335 19.2531 74.052 16.503 73.7618 13.6087C72.4183 13.4 71.0657 13.2551 69.7086 13.1743C69.6365 16.7932 72.0965 20.7022 77.9591 19.7595C80.1308 19.3992 81.2176 18.6747 81.6519 17.9501C81.1181 18.327 80.4922 18.5525 79.8406 18.6026L79.8425 18.6006Z" fill="white"/>
<path d="M93.5174 15.6343C85.409 19.7615 78.8959 28.2301 76.5781 31.3426C83.2393 29.1709 97.1362 28.012 99.38 34.7433C103.071 29.9655 106.762 25.8403 93.5174 15.6343ZM89.5363 21.1366C89.9591 20.3256 90.6492 19.6856 91.4898 19.3252C92.7928 19.8316 94.0218 20.7022 94.9645 21.7871L89.5363 21.1366Z" fill="#EEE9D7"/>
<path d="M70.934 20.7742C68.1819 19.2549 67.2411 16.2126 67.6034 13.3923C63.1879 13.7527 39.3031 15.5621 17.6602 21.2806C24.6076 22.5115 47.2654 27.7217 47.2654 27.7217C47.2654 27.7217 44.8035 35.0334 43.5005 39.665C51.825 32.4273 57.2513 28.156 70.934 20.7722V20.7742ZM45.2378 20.9183L62.2472 19.0368L53.1261 25.696L53.3442 22.9459L45.2378 20.9202V20.9183Z" fill="#D24A43"/>
<path d="M206.8 45.5279L210.347 27.0713H227.647L224.896 31.1966H214.979L212.809 42.4894C212.638 43.3244 212.184 44.075 211.525 44.6152C210.866 45.1553 210.04 45.4522 209.188 45.4558L206.8 45.5279ZM124.784 26.9993H113.131L113.059 27.2895C114.218 27.7219 115.953 28.6646 115.012 30.1117L105.024 45.4558H109.15C110.455 45.4558 111.612 44.8053 112.334 43.7184L113.133 42.4894H123.339L124.059 45.4558H129.852L124.784 26.9993ZM115.377 38.7245L119.862 31.4868H120.515L122.324 38.7245H115.377ZM174.295 26.9993H162.714L162.642 27.2895C163.727 27.7219 165.248 28.5185 164.813 29.8215L154.607 45.4558H158.733C159.366 45.4548 159.989 45.2953 160.546 44.9919C161.102 44.6884 161.573 44.2507 161.917 43.7184L162.716 42.4894H172.922L173.642 45.4558H179.435L174.295 26.9993ZM164.885 38.7245L169.373 31.4868H170.025L171.835 38.7245H164.885ZM241.688 26.9993H230.107L229.96 27.2895C231.119 27.7219 232.785 28.5905 231.988 30.0396L221.926 45.4558H226.051C226.677 45.4629 227.293 45.3063 227.839 45.0015C228.385 44.6967 228.842 44.2544 229.164 43.7184L229.96 42.4894H240.166L240.891 45.4558H246.682L241.688 26.9993ZM232.276 38.7245L236.766 31.4868H237.416L239.226 38.7245H232.276ZM294.303 41.7649L297.127 27.0713H275.991L275.847 27.3615C277.004 27.7959 278.381 28.5905 277.872 30.0396L273.169 41.6928H269.766L268.463 48.4241H270.853C272.59 48.4241 274.109 47.1931 274.472 45.4558H291.771L291.191 48.4241H296.693L297.996 41.6928H294.303V41.7649ZM288.803 41.7649H279.103L283.519 30.8343H290.902L288.803 41.7649ZM152.217 35.6841L151.855 35.6121L151.927 35.3238L152.29 35.2498C153.014 35.0336 153.737 34.6713 154.243 34.0928C155.112 33.2242 155.548 32.0672 155.474 30.8343C155.474 27.7219 152.508 27.0713 149.974 27.0713H132.892L132.746 27.3615C133.905 27.7959 135.064 28.5185 134.772 30.1838L131.805 45.5279H147.15C149.902 45.5279 151.855 44.8053 153.086 43.4302C154.092 42.2692 154.61 40.7648 154.533 39.2309C154.533 37.4935 153.809 36.1925 152.216 35.6861L152.217 35.6841ZM148.018 40.8962C147.44 41.5467 146.643 41.909 145.774 41.8369H138.03L138.827 37.6396H146.427C146.933 37.6396 148.527 37.6396 148.527 39.2309C148.583 39.8309 148.399 40.429 148.018 40.8962ZM148.743 33.6585C148.504 33.9376 148.203 34.1556 147.863 34.2942C147.523 34.4328 147.155 34.488 146.789 34.4551H139.476L140.2 30.6902H147.438C148.741 30.6902 149.319 31.1966 149.319 32.2094C149.319 32.7158 149.105 33.2962 148.743 33.6585ZM200.94 26.9993L199.562 33.9487H189.068L190.443 26.9993H182.481C182.409 27.0713 182.409 27.2155 182.337 27.2895C183.494 27.7219 184.653 28.4464 184.363 30.1117L181.396 45.4558H183.856C185.593 45.4558 187.113 44.2268 187.475 42.4894L188.344 38.146H198.84L197.393 45.5279H202.893L206.512 27.0713L200.94 26.9993ZM266.079 26.9993H249.864L249.72 27.2895C250.879 27.7219 252.036 28.4464 251.674 30.1117L248.707 45.4558H251.095C252.832 45.4558 254.352 44.2268 254.714 42.4894L255.292 39.303H263.763C266.875 39.303 269.045 38.5083 270.494 36.843C271.651 35.3959 272.232 33.5124 272.158 31.6309C272.304 28.4464 270.348 26.9993 266.079 26.9993ZM265.572 34.5272C264.992 35.3238 264.051 35.6841 263.111 35.6121H256.161L257.03 30.9804H263.835C265.354 30.9804 266.151 31.5589 266.151 32.7178C266.151 33.4404 265.933 34.0208 265.572 34.5272Z" fill="#26292E"/>
</g>
</svg>
