<svg width="46" height="46" viewBox="0 0 46 46" fill="none" xmlns="http://www.w3.org/2000/svg">
<path d="M18.5608 45.7348C14.5373 44.9029 10.7829 43.0472 7.83554 40.4334C0.26894 33.7234 -2.06955 23.1824 1.92772 13.8031C2.90934 11.4998 4.5052 9.16235 6.48251 7.1316L8.22574 5.34125L8.3487 15.8201C8.46638 25.8502 8.4929 26.3555 8.96808 27.6194C9.9187 30.148 10.9378 31.758 12.6923 33.5026C17.2243 38.0091 23.8719 39.1338 29.5229 36.3501C34.8345 33.7336 38.1831 28.0444 37.794 22.2976C37.5326 18.4375 36.2325 15.6069 33.4255 12.7867C31.303 10.6541 28.8058 9.26114 26.0871 8.69315C23.3209 8.11527 23.4537 8.03082 23.4537 10.3686V12.3869L24.9701 12.6659C30.843 13.7464 34.7272 19.5046 33.503 25.3159C33.1121 27.172 32.24 28.8109 30.8401 30.3207C28.7127 32.6151 25.7196 33.7118 23.1061 33.7067C18.7847 33.6984 15.1762 31.2465 13.4273 27.6206C13.4273 27.6206 12.9692 26.5842 12.8219 25.9437C11.9561 22.1773 12.5095 14.2489 12.5095 14.2489L12.4425 2.65609L13.1279 2.30219C13.5049 2.10755 13.8664 1.94829 13.9313 1.94829C13.9962 1.94829 14.0786 7.27285 14.1144 13.7806C14.1144 13.7806 13.2821 22.3115 14.3107 25.5806C14.4591 26.0523 14.7408 26.859 14.7408 26.859C15.6424 28.6932 17.0875 30.3066 18.9652 31.1946C20.3905 31.8688 21.1081 32.1738 23.2168 32.1738C24.5945 32.1738 25.815 31.7396 27.2194 31.0947C28.875 30.3344 30.7741 28.3187 31.4759 26.4783C33.4095 21.4077 30.7171 15.9524 25.5303 14.4312C23.4104 13.8095 23.4537 13.7753 23.4537 16.0768V18.0872L24.4712 18.3589C28.139 19.3384 29.2582 24.2472 26.3789 26.7695C25.3616 27.6606 24.4449 28.0545 22.8413 28.0545C21.1279 28.0545 19.4832 27.019 18.6376 25.4307C18.1297 24.4766 18.0868 23.5717 18.0868 23.1572C18.0868 19.3286 18.0038 12.443 18.0038 12.443L17.9352 0.631686L18.4617 0.501095C18.7514 0.429269 19.9219 0.251544 21.063 0.106149C24.9329 -0.386948 30.6582 0.877598 34.5046 3.07498C39.7485 6.07077 43.7163 11.2171 45.3684 17.1654C45.9367 19.2115 46 19.8065 46 23.0979C46 26.3746 45.9352 26.9893 45.379 28.9906C43.132 37.0751 37.4163 42.8545 29.2435 45.3055C27.5235 45.8214 26.7177 45.9198 23.6826 45.9844C21.2334 46.0365 19.6459 45.9592 18.5608 45.7348Z" fill="#C60C30"/>
</svg>
