<svg width="148" height="38" viewBox="0 0 148 38" fill="none" xmlns="http://www.w3.org/2000/svg">
<path d="M69.2976 11.0788C68.5115 11.0543 67.8729 11.6684 67.8483 12.4298C67.8483 12.4544 67.8483 12.5035 67.8483 12.5281V19.5042C64.483 16.8022 59.5457 17.3426 56.8437 20.7079C55.7383 22.108 55.1242 23.8275 55.1242 25.6206C55.0505 29.9439 58.4895 33.5056 62.8127 33.5793C67.1359 33.653 70.6977 30.2141 70.7714 25.8908C70.7714 25.7926 70.7714 25.7189 70.7714 25.6206V12.5281C70.7714 12.1351 70.624 11.7666 70.3538 11.4964C70.059 11.2262 69.6906 11.0788 69.2976 11.0788ZM67.4553 27.5121C66.964 28.6911 66.0306 29.6246 64.8515 30.1404C63.6233 30.6562 62.2477 30.6562 61.0195 30.1404C59.8405 29.6491 58.9316 28.6911 58.4403 27.5366C57.9245 26.333 57.9245 24.9574 58.4403 23.7292C58.9316 22.5502 59.865 21.6167 61.0195 21.1255C62.2477 20.6096 63.6233 20.6096 64.8515 21.1255C66.0306 21.6413 66.964 22.5747 67.4553 23.7538C67.9711 24.9329 67.9711 26.3084 67.4553 27.5121Z" fill="#0091E2"/>
<path d="M85.6323 20.093C82.5864 17.0471 77.6245 17.0471 74.5786 20.093C73.1047 21.5669 72.2941 23.5565 72.2941 25.6199C72.2204 29.9431 75.6594 33.5049 79.9826 33.5786C84.3059 33.6523 87.8676 30.2133 87.9413 25.8901C87.9413 25.7918 87.9413 25.7182 87.9413 25.6199C87.9413 24.5882 87.7448 23.5811 87.3518 22.6231C86.9588 21.6651 86.3692 20.8054 85.6323 20.093ZM84.6252 27.4867C84.3795 28.0763 84.0111 28.5921 83.5689 29.0343C83.1268 29.4764 82.5864 29.8449 82.0214 30.0905C80.7932 30.6064 79.4177 30.6064 78.1895 30.0905C77.0104 29.5992 76.077 28.6412 75.5857 27.4867C75.0698 26.2831 75.0698 24.9075 75.5857 23.6793C76.077 22.5003 77.0104 21.5914 78.1895 21.0756C79.4177 20.5597 80.7932 20.5597 82.0214 21.0756C82.6109 21.3212 83.1268 21.6897 83.5689 22.1318C84.0111 22.574 84.3795 23.1144 84.6252 23.6793C85.141 24.9321 85.141 26.3077 84.6252 27.4867Z" fill="#0091E2"/>
<path d="M117.984 19.2333C117.984 19.0368 117.935 18.8403 117.861 18.6684C117.787 18.4964 117.665 18.349 117.542 18.2016C117.419 18.0788 117.247 17.956 117.075 17.8823C116.903 17.8086 116.707 17.7595 116.51 17.7595C116.24 17.7595 115.97 17.8332 115.724 17.9806L107.372 23.4092V12.552C107.372 12.1589 107.225 11.7905 106.955 11.5203C106.685 11.2501 106.316 11.0781 105.923 11.0781C105.112 11.0781 104.474 11.7168 104.449 12.5274C104.449 12.5274 104.449 12.5274 104.449 12.552V31.9574C104.449 32.3504 104.597 32.7189 104.867 32.9891C105.137 33.2839 105.505 33.4312 105.898 33.4312C106.292 33.4312 106.66 33.2839 106.93 32.9891C107.2 32.7189 107.372 32.3504 107.348 31.9574V26.9218L109.043 25.8164L115.503 33.0628C115.773 33.3084 116.117 33.4558 116.486 33.4312C116.682 33.4312 116.879 33.4067 117.05 33.3084C117.222 33.2347 117.37 33.1365 117.517 32.9891C117.64 32.8417 117.763 32.6943 117.837 32.5224C117.91 32.3504 117.959 32.1539 117.959 31.9574C117.959 31.5889 117.812 31.2205 117.566 30.9503L111.573 24.1952L117.419 20.3878C117.812 20.1422 118.008 19.7 117.984 19.2333Z" fill="#0091E2"/>
<path d="M93.7384 22.1318C94.1806 21.6897 94.721 21.3212 95.3105 21.0756C95.9246 20.8299 96.5633 20.6825 97.2265 20.6825C97.816 20.6825 98.381 20.7808 98.9214 20.9773C99.4618 21.1984 99.9777 21.4932 100.42 21.8862C100.69 22.1073 101.034 22.2055 101.378 22.2055C101.771 22.2301 102.164 22.0827 102.434 21.7879C102.704 21.5177 102.852 21.1247 102.852 20.7317C102.852 20.3141 102.68 19.8965 102.336 19.6263C100.936 18.3735 99.1179 17.6858 97.2265 17.7349C92.9033 17.7349 89.3906 21.2475 89.3906 25.5708C89.3906 29.894 92.8787 33.3821 97.1774 33.4066C99.0688 33.4066 100.887 32.7434 102.311 31.5152C102.606 31.245 102.778 30.852 102.778 30.4344C102.802 29.6484 102.188 29.0097 101.427 28.9851C101.402 28.9851 101.353 28.9851 101.329 28.9851C100.985 28.9851 100.665 29.0834 100.395 29.2799C99.9531 29.6729 99.4618 29.9677 98.9214 30.1888C98.381 30.3853 97.7915 30.4835 97.2265 30.4835C96.5633 30.4835 95.9246 30.3607 95.3105 30.0905C94.721 29.8449 94.2051 29.4764 93.7384 29.0343C91.8224 27.1183 91.8224 24.0232 93.7139 22.1072C93.7384 22.1564 93.7384 22.1564 93.7384 22.1318Z" fill="#0091E2"/>
<path d="M146.994 18.7666C146.699 18.4964 146.38 18.2999 146.011 18.1771C145.593 18.0297 145.151 17.9314 144.709 17.8823C144.267 17.8332 143.825 17.8086 143.383 17.8086C142.498 17.8086 141.59 17.956 140.754 18.2753C139.919 18.5701 139.158 19.0122 138.47 19.5526V19.2579C138.445 18.4473 137.758 17.8332 136.947 17.8577C136.186 17.8823 135.571 18.4964 135.547 19.2579V32.0065C135.571 32.8171 136.259 33.4312 137.07 33.4066C137.831 33.3821 138.445 32.768 138.47 32.0065V25.6445C138.47 24.9812 138.593 24.3426 138.863 23.7285C139.109 23.139 139.453 22.6231 139.919 22.181C140.361 21.7388 140.902 21.3704 141.467 21.1247C142.081 20.8791 142.72 20.7317 143.383 20.7317C144.046 20.7317 144.685 20.8545 145.299 21.0756C145.495 21.1738 145.692 21.223 145.913 21.223C146.109 21.223 146.306 21.1984 146.478 21.1001C146.65 21.0265 146.797 20.9282 146.944 20.7808C147.067 20.658 147.19 20.4861 147.264 20.3141C147.338 20.1422 147.387 19.9456 147.387 19.7491C147.411 19.3807 147.264 19.0368 146.994 18.7666Z" fill="#0091E2"/>
<path d="M133.434 22.6231C132.181 19.7246 129.332 17.8332 126.187 17.8086C121.864 17.8086 118.376 21.2967 118.352 25.6199C118.352 29.9431 121.864 33.4558 126.187 33.4558C128.054 33.4558 129.872 32.7925 131.297 31.5644C131.321 31.5398 131.346 31.5152 131.346 31.5152C131.469 31.417 131.591 31.2942 131.665 31.1468C132.132 30.459 131.96 29.5501 131.297 29.0834C130.732 28.7149 129.995 28.7886 129.504 29.2554C129.454 29.3045 129.307 29.4273 129.307 29.4519L129.282 29.4764C128.865 29.8203 128.398 30.1151 127.882 30.287C127.342 30.4835 126.777 30.5818 126.187 30.5572C125.647 30.5572 125.131 30.4835 124.615 30.3116C124.124 30.1396 123.657 29.9186 123.24 29.5992C122.822 29.3045 122.454 28.936 122.159 28.5184C121.84 28.1009 121.619 27.6096 121.471 27.1183H132.525C132.918 27.1183 133.286 26.9709 133.557 26.7007C133.851 26.4305 133.999 26.062 133.974 25.669C133.999 24.6128 133.802 23.5811 133.434 22.6231ZM121.471 24.1952C121.619 23.6794 121.84 23.2126 122.159 22.7951C122.454 22.3775 122.822 22.009 123.24 21.7142C123.657 21.4195 124.124 21.1738 124.615 21.0019C125.107 20.8299 125.647 20.7563 126.163 20.7563C126.679 20.7563 127.219 20.8299 127.71 21.0019C128.693 21.3212 129.553 21.9599 130.167 22.7951C130.486 23.2126 130.707 23.7039 130.879 24.1952H121.471Z" fill="#0091E2"/>
<path d="M142.007 31.3184C141.442 31.3184 141 31.7851 141 32.35C141 32.915 141.467 33.3572 142.032 33.3572C142.597 33.3572 143.039 32.8904 143.039 32.35C143.039 31.7605 142.572 31.3184 142.007 31.3184ZM142.007 33.1361C141.565 33.1606 141.196 32.8168 141.172 32.3746C141.147 31.9325 141.491 31.564 141.933 31.5394C142.376 31.5149 142.744 31.8588 142.769 32.3009C142.769 32.3255 142.769 32.3255 142.769 32.35C142.793 32.7676 142.449 33.1361 142.032 33.1361C142.032 33.1361 142.032 33.1361 142.007 33.1361Z" fill="#0091E2"/>
<path d="M142.252 32.351C142.375 32.3264 142.448 32.2281 142.448 32.1053C142.448 32.0071 142.424 31.9334 142.35 31.8842C142.252 31.8351 142.129 31.8105 142.006 31.8105C141.883 31.8105 141.736 31.8105 141.613 31.8351V32.8422H141.834V32.4492H141.933C142.055 32.4492 142.129 32.4983 142.154 32.5966C142.178 32.6703 142.203 32.7685 142.227 32.8422H142.473C142.424 32.7685 142.399 32.6703 142.399 32.5966C142.424 32.4983 142.35 32.4001 142.252 32.351ZM141.957 32.2773H141.834V31.9825C141.883 31.9825 141.933 31.9825 141.957 31.9825C142.105 31.9825 142.178 32.0562 142.178 32.1299C142.203 32.2281 142.08 32.3018 141.957 32.2773Z" fill="#0091E2"/>
<path d="M52.447 14.3701C52.2997 14.2473 50.9732 13.2402 48.1238 13.2402C47.3869 13.2402 46.6254 13.3139 45.8885 13.4367C45.3481 9.67844 42.2285 7.86071 42.1057 7.76246L41.3442 7.32031L40.8529 8.03266C40.2388 8.99065 39.7721 10.0715 39.5019 11.1768C38.986 13.3139 39.3054 15.3281 40.3862 17.0476C39.0843 17.7845 36.9718 17.9565 36.5297 17.981H1.64898C0.740122 17.981 0.003206 18.7179 0.003206 19.6268C-0.0459217 22.6727 0.469919 25.7186 1.52617 28.5926C2.72979 31.7368 4.52296 34.0703 6.83196 35.4951C9.43573 37.0917 13.6853 38.0006 18.4752 38.0006C20.6368 38.0006 22.7985 37.8041 24.9355 37.411C27.9078 36.8706 30.7572 35.839 33.3855 34.3406C35.5471 33.0878 37.4877 31.4911 39.1334 29.6243C41.9091 26.5047 43.5549 23.0166 44.7586 19.9216C44.9305 19.9216 45.0779 19.9216 45.2498 19.9216C48.2712 19.9216 50.138 18.7179 51.1697 17.6863C51.8575 17.0476 52.3734 16.2616 52.7418 15.3773L52.9629 14.7386L52.447 14.3701Z" fill="#0091E2"/>
<path d="M4.8922 16.9739H9.55933C9.7804 16.9739 9.97691 16.802 9.97691 16.5563V12.3805C9.97691 12.1594 9.80497 11.9629 9.55933 11.9629H4.8922C4.67112 11.9629 4.47461 12.1348 4.47461 12.3805V16.5563C4.49917 16.802 4.67112 16.9739 4.8922 16.9739Z" fill="#0091E2"/>
<path d="M11.3277 16.9739H15.9949C16.2159 16.9739 16.4125 16.802 16.4125 16.5563V12.3805C16.4125 12.1594 16.2405 11.9629 15.9949 11.9629H11.3277C11.1067 11.9629 10.9102 12.1348 10.9102 12.3805V16.5563C10.9347 16.802 11.1067 16.9739 11.3277 16.9739Z" fill="#0091E2"/>
<path d="M17.8863 16.9739H22.5535C22.7745 16.9739 22.9711 16.802 22.9711 16.5563V12.3805C22.9711 12.1594 22.7991 11.9629 22.5535 11.9629H17.8863C17.6653 11.9629 17.4688 12.1348 17.4688 12.3805V16.5563C17.4688 16.802 17.6407 16.9739 17.8863 16.9739Z" fill="#0091E2"/>
<path d="M24.3453 16.9739H29.0125C29.2335 16.9739 29.43 16.802 29.43 16.5563V12.3805C29.43 12.1594 29.2581 11.9629 29.0125 11.9629H24.3453C24.1242 11.9629 23.9277 12.1348 23.9277 12.3805V16.5563C23.9277 16.802 24.1242 16.9739 24.3453 16.9739Z" fill="#0091E2"/>
<path d="M11.3277 11.0052H15.9949C16.2159 11.0052 16.4125 10.8087 16.4125 10.5876V6.41173C16.4125 6.19065 16.2405 5.99414 15.9949 5.99414H11.3277C11.1067 5.99414 10.9102 6.16609 10.9102 6.41173V10.5876C10.9347 10.8087 11.1067 11.0052 11.3277 11.0052Z" fill="#0091E2"/>
<path d="M17.8863 11.0052H22.5535C22.7745 11.0052 22.9711 10.8087 22.9711 10.5876V6.41173C22.9711 6.19065 22.7991 5.99414 22.5535 5.99414H17.8863C17.6653 5.99414 17.4688 6.16609 17.4688 6.41173V10.5876C17.4688 10.8087 17.6407 11.0052 17.8863 11.0052Z" fill="#0091E2"/>
<path d="M24.3453 11.0052H29.0125C29.2335 11.0052 29.43 10.8087 29.43 10.5876V6.41173C29.43 6.19065 29.2335 5.99414 29.0125 5.99414H24.3453C24.1242 5.99414 23.9277 6.16609 23.9277 6.41173V10.5876C23.9277 10.8087 24.1242 11.0052 24.3453 11.0052Z" fill="#0091E2"/>
<path d="M24.3453 5.01103H29.0125C29.2335 5.01103 29.43 4.83908 29.43 4.59344V0.417589C29.43 0.196514 29.2335 0 29.0125 0H24.3453C24.1242 0 23.9277 0.17195 23.9277 0.417589V4.59344C23.9277 4.81452 24.1242 5.01103 24.3453 5.01103Z" fill="#0091E2"/>
<path d="M30.8551 16.9739H35.5222C35.7433 16.9739 35.9398 16.802 35.9398 16.5563V12.3805C35.9398 12.1594 35.7679 11.9629 35.5222 11.9629H30.8551C30.634 11.9629 30.4375 12.1348 30.4375 12.3805V16.5563C30.4621 16.802 30.634 16.9739 30.8551 16.9739Z" fill="#0091E2"/>
</svg>
