<svg width="30" height="46" viewBox="0 0 30 46" fill="none" xmlns="http://www.w3.org/2000/svg">
<g id="figma_logo" clip-path="url(#clip0_1_1330)">
<path id="Vector" d="M15 23.0007C15 20.9673 15.7902 19.0173 17.1967 17.5795C18.6032 16.1417 20.5109 15.334 22.5 15.334C24.4891 15.334 26.3968 16.1417 27.8033 17.5795C29.2098 19.0173 30 20.9673 30 23.0007C30 25.034 29.2098 26.984 27.8033 28.4218C26.3968 29.8596 24.4891 30.6673 22.5 30.6673C20.5109 30.6673 18.6032 29.8596 17.1967 28.4218C15.7902 26.984 15 25.034 15 23.0007Z" fill="#1ABCFE"/>
<path id="Vector_2" d="M0 38.3327C0 36.2994 0.790176 34.3493 2.1967 32.9115C3.60322 31.4738 5.51088 30.666 7.5 30.666H15V38.3327C15 40.366 14.2098 42.3161 12.8033 43.7538C11.3968 45.1916 9.48912 45.9993 7.5 45.9993C5.51088 45.9993 3.60322 45.1916 2.1967 43.7538C0.790176 42.3161 0 40.366 0 38.3327H0Z" fill="#0ACF83"/>
<path id="Vector_3" d="M15 0V15.3333H22.5C24.4891 15.3333 26.3968 14.5256 27.8033 13.0878C29.2098 11.65 30 9.69999 30 7.66667C30 5.63334 29.2098 3.68329 27.8033 2.24551C26.3968 0.807736 24.4891 0 22.5 0L15 0Z" fill="#FF7262"/>
<path id="Vector_4" d="M0 7.66667C0 9.69999 0.790176 11.65 2.1967 13.0878C3.60322 14.5256 5.51088 15.3333 7.5 15.3333H15V0H7.5C5.51088 0 3.60322 0.807736 2.1967 2.24551C0.790176 3.68329 0 5.63334 0 7.66667H0Z" fill="#F24E1E"/>
<path id="Vector_5" d="M0 23.0007C0 25.034 0.790176 26.984 2.1967 28.4218C3.60322 29.8596 5.51088 30.6673 7.5 30.6673H15V15.334H7.5C5.51088 15.334 3.60322 16.1417 2.1967 17.5795C0.790176 19.0173 0 20.9673 0 23.0007H0Z" fill="#A259FF"/>
</g>
<defs>
<clipPath id="clip0_1_1330">
<rect width="30" height="46" fill="white"/>
</clipPath>
</defs>
</svg>
