<svg width="55" height="55" viewBox="0 0 55 55" fill="none" xmlns="http://www.w3.org/2000/svg">
<path d="M53.9626 25.0501L29.9493 1.03746C28.5666 -0.345821 26.3238 -0.345821 24.94 1.03746L19.9541 6.0247L26.279 12.3497C27.749 11.8529 29.4345 12.1863 30.6059 13.3583C31.7844 14.5375 32.1148 16.2374 31.6055 17.7129L37.7023 23.8093C39.1777 23.3005 40.8788 23.6297 42.0568 24.8095C43.7028 26.4555 43.7028 29.1227 42.0568 30.77C40.4096 32.4166 37.7424 32.4166 36.0946 30.77C34.8568 29.5309 34.5503 27.7113 35.1782 26.1862L29.492 20.5004V35.4627C29.893 35.6614 30.2719 35.926 30.6059 36.26C32.2519 37.906 32.2519 40.5733 30.6059 42.2211C28.9599 43.8666 26.2909 43.8666 24.6461 42.2211C23.0001 40.5727 23.0001 37.9054 24.6461 36.26C25.0531 35.8536 25.5242 35.5459 26.027 35.34V20.2382C25.5242 20.0323 25.0543 19.7276 24.6461 19.3182C23.3993 18.072 23.0995 16.2416 23.7387 14.7105L17.5036 8.47403L1.03744 24.9387C-0.345813 26.3232 -0.345813 28.566 1.03744 29.9493L25.0519 53.9625C26.4346 55.3458 28.6768 55.3458 30.0612 53.9625L53.9626 30.0607C55.3458 28.6774 55.3458 26.4334 53.9626 25.0501Z" fill="#F05133"/>
</svg>
