<svg width="172" height="29" viewBox="0 0 172 29" fill="none" xmlns="http://www.w3.org/2000/svg">
<path d="M27.3763 6.44976C27.2048 5.90084 26.7931 5.45485 26.2785 5.18039L15.8148 0.171536C15.5403 0.0343072 15.2315 0 14.9571 0C14.6826 0 14.3738 0 14.0994 0.0686144L3.63569 5.11178C3.12108 5.35193 2.7437 5.79792 2.60647 6.38114L0.0334275 17.6682C-0.0694942 18.2514 0.0677348 18.8347 0.410807 19.315L7.64963 28.2692C8.06132 28.6808 8.64454 28.9553 9.22776 28.9896H20.755C21.3725 29.0582 21.9557 28.7838 22.3331 28.2692L29.5719 19.315C29.915 18.8347 30.0523 18.2514 29.9836 17.6682L27.3763 6.44976Z" fill="#326DE6"/>
<path d="M25.764 17.222C25.7297 17.222 25.6954 17.222 25.6954 17.1877C25.6954 17.1534 25.6268 17.1534 25.5582 17.1534C25.4209 17.1191 25.2837 17.1191 25.1465 17.1191C25.0779 17.1191 25.0092 17.1191 24.9406 17.0848H24.9063C24.5289 17.0505 24.1172 16.9818 23.7399 16.8789C23.6369 16.8446 23.534 16.7417 23.4997 16.6388L23.2253 16.5702C23.3625 15.5752 23.2939 14.546 23.088 13.5511C22.8479 12.5562 22.4362 11.5956 21.8873 10.7379L22.0931 10.5321V10.4978C22.0931 10.3949 22.1274 10.2576 22.196 10.189C22.5048 9.91455 22.8136 9.70871 23.1566 9.50286C23.2253 9.46856 23.2939 9.43425 23.3625 9.39994C23.4997 9.33133 23.6026 9.26271 23.7399 9.1941C23.7742 9.15979 23.8085 9.15979 23.8428 9.12548C23.8771 9.09118 23.8428 9.09118 23.8428 9.05687C24.1516 8.81672 24.2202 8.40503 23.98 8.09627C23.8771 7.95904 23.6713 7.85612 23.4997 7.85612C23.3282 7.85612 23.1566 7.92473 23.0194 8.02765L22.9851 8.06196C22.9508 8.09627 22.9165 8.13058 22.8822 8.13058C22.7793 8.2335 22.6763 8.33642 22.6077 8.43934C22.5734 8.50795 22.5048 8.54226 22.4705 8.57657C22.2304 8.85103 21.9216 9.12548 21.6128 9.33133C21.5442 9.36564 21.4756 9.39994 21.407 9.39994C21.3727 9.39994 21.3041 9.39994 21.2697 9.36563H21.2354L20.961 9.53717C20.6865 9.26271 20.3778 8.98826 20.1033 8.7138C18.8339 7.71889 17.2558 7.10136 15.6434 6.92982L15.6091 6.65536V6.68967C15.5061 6.62106 15.4718 6.51814 15.4375 6.41521C15.4375 6.03783 15.4375 5.66045 15.5061 5.24877V5.21446C15.5061 5.14585 15.5404 5.07723 15.5404 5.00862C15.5747 4.87139 15.5747 4.73416 15.6091 4.59693V4.39109C15.6434 4.04802 15.3689 3.70494 15.0258 3.67064C14.82 3.63633 14.6141 3.73925 14.4426 3.91079C14.3054 4.04802 14.2368 4.21955 14.2368 4.39109V4.56262C14.2368 4.69985 14.2711 4.83708 14.3054 4.97431C14.3397 5.04292 14.3397 5.11154 14.3397 5.18015V5.21446C14.4083 5.59184 14.4083 5.96922 14.4083 6.38091C14.374 6.48383 14.3397 6.58675 14.2368 6.65536V6.72398L14.2025 6.99844C13.8251 7.03274 13.4477 7.10136 13.036 7.16997C11.4236 7.51304 9.94836 8.37073 8.81622 9.57148L8.61038 9.43425H8.57607C8.54177 9.43425 8.50746 9.46856 8.43885 9.46856C8.37023 9.46856 8.30162 9.43425 8.233 9.39994C7.92424 9.15979 7.61547 8.88533 7.37532 8.61088C7.34101 8.54226 7.2724 8.50795 7.23809 8.47365C7.13517 8.37073 7.06656 8.2678 6.96363 8.16488C6.92933 8.13057 6.89502 8.13058 6.86071 8.09627C6.82641 8.06196 6.82641 8.06196 6.82641 8.06196C6.68918 7.95904 6.51764 7.89042 6.3461 7.89042C6.14026 7.89042 5.96873 7.95904 5.8658 8.13058C5.65996 8.43934 5.72857 8.85103 6.00303 9.09118C6.03734 9.09118 6.03734 9.12548 6.03734 9.12548C6.03734 9.12548 6.10595 9.1941 6.14026 9.1941C6.24318 9.26271 6.38041 9.33133 6.51764 9.39994C6.58626 9.43425 6.65487 9.46856 6.72348 9.50286C7.06656 9.70871 7.40963 9.91455 7.68409 10.189C7.7527 10.2576 7.82132 10.3949 7.78701 10.4978V10.4635L7.99285 10.6693C7.95854 10.7379 7.92424 10.7722 7.88993 10.8408C6.82641 12.5219 6.38041 14.5117 6.68918 16.4672L6.41472 16.5358C6.41472 16.5702 6.38041 16.5702 6.38041 16.5702C6.3461 16.6731 6.24318 16.7417 6.14026 16.8103C5.76288 16.9132 5.3855 16.9818 4.97382 17.0161C4.9052 17.0161 4.83659 17.0161 4.76797 17.0505C4.63074 17.0505 4.49351 17.0848 4.35629 17.0848C4.32198 17.0848 4.28767 17.1191 4.21906 17.1191C4.18475 17.1191 4.18475 17.1191 4.15044 17.1534C3.77306 17.222 3.53291 17.5651 3.60153 17.9424C3.67014 18.2512 3.97891 18.457 4.28767 18.4227C4.35629 18.4227 4.39059 18.4227 4.45921 18.3884C4.49351 18.3884 4.49351 18.3884 4.49351 18.3541C4.49351 18.3198 4.59644 18.3541 4.63074 18.3541C4.76797 18.3198 4.9052 18.2512 5.00812 18.2169C5.07674 18.1826 5.14535 18.1483 5.21397 18.1483H5.24827C5.62565 18.0111 5.96873 17.9081 6.38041 17.8395H6.41472C6.51764 17.8395 6.62056 17.8738 6.68918 17.9424C6.72348 17.9424 6.72348 17.9767 6.72348 17.9767L7.03225 17.9424C7.54686 19.5206 8.50746 20.9272 9.84544 21.9564C10.1542 22.1965 10.4287 22.4024 10.7717 22.5739L10.6002 22.8141C10.6002 22.8484 10.6345 22.8484 10.6345 22.8484C10.7031 22.9513 10.7031 23.0885 10.6688 23.1914C10.5316 23.5345 10.3257 23.8776 10.1199 24.1864V24.2207C10.0856 24.2893 10.0513 24.3236 9.98267 24.3922C9.91406 24.4608 9.84544 24.598 9.74252 24.7353C9.70821 24.7696 9.70821 24.8039 9.67391 24.8382C9.67391 24.8382 9.67391 24.8725 9.6396 24.8725C9.46806 25.2156 9.60529 25.6273 9.91406 25.7988C9.98267 25.8331 10.0856 25.8674 10.1542 25.8674C10.4287 25.8674 10.6688 25.6959 10.806 25.4557C10.806 25.4557 10.806 25.4214 10.8404 25.4214C10.8404 25.3871 10.8747 25.3528 10.909 25.3185C10.9433 25.1813 11.0119 25.0783 11.0462 24.9411L11.1148 24.7353C11.2177 24.3579 11.3893 24.0148 11.5608 23.6717C11.6294 23.5688 11.7323 23.5002 11.8353 23.4659C11.8696 23.4659 11.8696 23.4659 11.8696 23.4316L12.0068 23.1571C12.9674 23.5345 13.9623 23.7061 14.9915 23.7061C15.6091 23.7061 16.2266 23.6374 16.8441 23.4659C17.2215 23.3973 17.5989 23.2601 17.9419 23.1571L18.0792 23.3973C18.1135 23.3973 18.1135 23.3973 18.1135 23.4316C18.2164 23.4659 18.3193 23.5345 18.3879 23.6374C18.5595 23.9805 18.731 24.3236 18.8339 24.701V24.7353L18.9025 24.9411C18.9369 25.0783 18.9712 25.2156 19.0398 25.3185C19.0741 25.3528 19.0741 25.3871 19.1084 25.4214C19.1084 25.4214 19.1084 25.4557 19.1427 25.4557C19.2799 25.6959 19.5201 25.8674 19.7945 25.8674C19.8975 25.8674 19.9661 25.8331 20.069 25.7988C20.2062 25.7302 20.3435 25.593 20.3778 25.4214C20.4121 25.2499 20.4121 25.0783 20.3435 24.9068C20.3435 24.8725 20.3091 24.8725 20.3091 24.8725C20.3091 24.8382 20.2748 24.8039 20.2405 24.7696C20.1719 24.6323 20.1033 24.5294 20.0004 24.4265C19.9661 24.3579 19.9318 24.3236 19.8632 24.255V24.1864C19.623 23.8776 19.4515 23.5345 19.3142 23.1914C19.2799 23.0885 19.2799 22.9513 19.3485 22.8484C19.3485 22.8141 19.3829 22.8141 19.3829 22.8141L19.2799 22.5396C21.0296 21.4761 22.3676 19.8293 22.9851 17.8738L23.2596 17.9081C23.2939 17.9081 23.2939 17.8738 23.2939 17.8738C23.3625 17.8052 23.4654 17.7709 23.5683 17.7709H23.6026C23.98 17.8395 24.3574 17.9424 24.7005 18.0797H24.7348C24.8034 18.114 24.872 18.1483 24.9406 18.1483C25.0779 18.2169 25.1808 18.2855 25.318 18.3198C25.3523 18.3198 25.3866 18.3541 25.4552 18.3541C25.4895 18.3541 25.4895 18.3541 25.5238 18.3884C25.5925 18.4227 25.6268 18.4227 25.6954 18.4227C26.0041 18.4227 26.2786 18.2169 26.3815 17.9424C26.3472 17.5651 26.0728 17.2906 25.764 17.222ZM15.8492 16.1585L14.9229 16.6045L13.9966 16.1585L13.7565 15.1636L14.4083 14.3402H15.4375L16.0894 15.1636L15.8492 16.1585ZM21.4413 13.9285C21.6128 14.6489 21.6471 15.3694 21.5785 16.0899L18.3193 15.1636C18.0106 15.0949 17.839 14.7862 17.9076 14.4774C17.9419 14.3745 17.9763 14.3059 18.0449 14.2373L20.6179 11.9044C20.9953 12.5219 21.2697 13.208 21.4413 13.9285ZM19.5887 10.635L16.7755 12.6248C16.5353 12.762 16.1923 12.7277 16.0207 12.4876C15.9521 12.419 15.9178 12.3504 15.9178 12.2474L15.712 8.78241C17.2215 8.95395 18.5595 9.60579 19.5887 10.635ZM13.3791 8.88533L14.0652 8.74811L13.8937 12.1788C13.8937 12.4876 13.6192 12.7277 13.3105 12.7277C13.2076 12.7277 13.1389 12.6934 13.036 12.6591L10.1885 10.635C11.0805 9.77732 12.1783 9.15979 13.3791 8.88533ZM9.1936 11.9044L11.7323 14.1686C11.9725 14.3745 12.0068 14.7176 11.801 14.9577C11.7323 15.0606 11.6637 15.0949 11.5265 15.1292L8.19869 16.0899C8.09577 14.6489 8.43885 13.1737 9.1936 11.9044ZM8.61038 17.7023L12.0068 17.1191C12.2813 17.1191 12.5557 17.2906 12.59 17.5651C12.6243 17.668 12.6243 17.8052 12.5557 17.9081L11.252 21.0644C10.0513 20.2753 9.09068 19.0746 8.61038 17.7023ZM16.3981 21.9564C15.9178 22.0593 15.4375 22.1279 14.9229 22.1279C14.2025 22.1279 13.4477 21.9907 12.7616 21.7848L14.4426 18.7315C14.6141 18.5257 14.8886 18.457 15.1288 18.5943C15.2317 18.6629 15.3003 18.7315 15.4032 18.8344L17.05 21.8192C16.8441 21.8535 16.6383 21.8878 16.3981 21.9564ZM20.5836 18.9717C20.069 19.795 19.3485 20.5155 18.5252 21.0301L17.1872 17.8052C17.1186 17.5308 17.2558 17.2563 17.496 17.1534C17.5989 17.1191 17.7018 17.0848 17.8047 17.0848L21.2354 17.668C21.0639 18.1483 20.8581 18.5943 20.5836 18.9717Z" fill="white"/>
<path d="M166.219 21.4417C166.699 21.476 167.214 21.4074 167.66 21.2359C167.934 21.0987 168.105 20.7899 168.071 20.4811C168.037 20.1381 167.831 19.8293 167.522 19.7264C167.008 19.4176 166.424 19.1432 165.841 18.9716C165.258 18.7658 164.743 18.5256 164.263 18.2855C163.817 18.0796 163.44 17.8052 163.062 17.4621C162.719 17.119 162.479 16.7416 162.308 16.2957C162.102 15.781 162.033 15.2321 162.033 14.6832C161.999 13.5511 162.513 12.4532 163.405 11.7671C164.332 11.0466 165.567 10.7036 167.145 10.7036C167.9 10.7036 168.689 10.7722 169.443 10.9437C170.027 11.0466 170.61 11.1839 171.193 11.3897L170.541 14.3058C170.061 14.1343 169.615 14.0314 169.135 13.8941C168.586 13.7569 168.003 13.7226 167.454 13.7226C166.287 13.7226 165.704 14.0314 165.704 14.6832C165.704 14.8204 165.738 14.9577 165.773 15.0949C165.841 15.2321 165.944 15.3351 166.081 15.438C166.219 15.5409 166.424 15.6438 166.665 15.781C166.905 15.9183 167.248 16.0555 167.66 16.1927C168.346 16.4329 169.032 16.7416 169.649 17.0847C170.13 17.3249 170.541 17.6336 170.884 18.0453C171.193 18.3541 171.399 18.7315 171.536 19.1775C171.673 19.6578 171.742 20.1381 171.742 20.6184C171.811 21.7848 171.262 22.9169 170.267 23.5688C169.306 24.2206 167.934 24.5637 166.15 24.5637C165.155 24.598 164.194 24.4951 163.234 24.2549C162.685 24.1177 162.17 23.9462 161.656 23.7746L162.273 20.7556C162.891 20.9957 163.543 21.2016 164.194 21.3388C164.881 21.3731 165.532 21.4417 166.219 21.4417ZM147.315 17.6679C147.281 16.6387 147.487 15.6095 147.83 14.6489C148.139 13.8255 148.619 13.1051 149.237 12.4532C149.82 11.87 150.472 11.424 151.226 11.1496C151.981 10.8408 152.77 10.7036 153.559 10.7036C155.412 10.7036 156.887 11.2868 157.951 12.4189C159.014 13.5511 159.563 15.2321 159.563 17.4278C159.563 17.6336 159.563 17.8738 159.529 18.1482C159.529 18.4227 159.494 18.6285 159.494 18.8344H151.123C151.192 19.5548 151.569 20.241 152.187 20.6527C152.942 21.133 153.834 21.3731 154.726 21.3388C155.378 21.3388 156.064 21.2702 156.715 21.1673C157.264 21.0644 157.813 20.8928 158.328 20.6527L158.843 23.6717C158.602 23.8089 158.328 23.8776 158.053 23.9805C157.676 24.0834 157.299 24.1863 156.921 24.2206C156.51 24.2892 156.098 24.3579 155.618 24.4265C155.172 24.4608 154.691 24.4951 154.211 24.4951C153.148 24.5294 152.118 24.3579 151.123 23.9805C150.3 23.6717 149.58 23.1914 148.962 22.5739C148.379 21.9563 147.967 21.2016 147.693 20.4125C147.453 19.4862 147.315 18.5599 147.315 17.6679ZM155.995 16.2613C155.995 15.9526 155.926 15.6438 155.824 15.3351C155.755 15.0263 155.583 14.7861 155.412 14.546C155.206 14.3058 154.966 14.1 154.691 13.9628C154.348 13.7912 154.005 13.7226 153.628 13.7226C153.25 13.7226 152.907 13.7912 152.564 13.9628C152.29 14.1 152.015 14.2715 151.81 14.5117C151.604 14.7518 151.432 15.0263 151.329 15.3351C151.226 15.6438 151.158 15.9526 151.123 16.2613H155.995ZM137.263 7.75316L140.968 7.16993V11.0123H145.428V14.1H140.968V18.6972C140.934 19.349 141.071 20.0008 141.38 20.5498C141.655 20.9957 142.204 21.2359 143.061 21.2359C143.473 21.2359 143.885 21.2016 144.262 21.133C144.674 21.0644 145.051 20.9614 145.428 20.8242L145.943 23.706C145.463 23.9119 144.948 24.0491 144.433 24.1863C143.782 24.3235 143.096 24.3922 142.409 24.3922C141.552 24.4265 140.694 24.2892 139.905 23.9805C139.287 23.7403 138.739 23.3286 138.327 22.8483C137.915 22.3337 137.641 21.7162 137.469 21.0644C137.298 20.3096 137.229 19.5205 137.263 18.7658V7.75316ZM122.271 17.6679C122.237 16.6387 122.443 15.6095 122.786 14.6489C123.094 13.8255 123.575 13.1051 124.192 12.4532C124.775 11.87 125.427 11.424 126.182 11.1496C126.937 10.8408 127.726 10.7036 128.515 10.7036C130.368 10.7036 131.843 11.2868 132.906 12.4189C133.97 13.5511 134.519 15.2321 134.519 17.4278C134.519 17.6336 134.519 17.8738 134.484 18.1482C134.45 18.4227 134.45 18.6285 134.45 18.8344H126.045C126.113 19.5548 126.491 20.241 127.108 20.6527C127.863 21.133 128.755 21.3731 129.647 21.3388C130.299 21.3388 130.985 21.2702 131.637 21.1673C132.186 21.0644 132.735 20.8928 133.284 20.6527L133.798 23.6717C133.558 23.8089 133.284 23.8776 133.009 23.9805C132.632 24.0834 132.254 24.1863 131.877 24.2206C131.465 24.2892 131.054 24.3579 130.573 24.4265C130.127 24.4608 129.647 24.4951 129.167 24.4951C128.103 24.5294 127.074 24.3579 126.079 23.9805C125.256 23.6717 124.535 23.1914 123.918 22.5739C123.335 21.9563 122.923 21.2016 122.648 20.4125C122.374 19.4862 122.237 18.5599 122.271 17.6679ZM130.951 16.2613C130.951 15.9526 130.882 15.6438 130.779 15.3351C130.711 15.0263 130.539 14.7861 130.368 14.546C130.162 14.3058 129.922 14.1 129.647 13.9628C129.304 13.7912 128.961 13.7226 128.584 13.7226C128.206 13.7226 127.863 13.7912 127.52 13.9628C127.246 14.1 127.005 14.2715 126.8 14.5117C126.594 14.7518 126.422 15.0263 126.319 15.3351C126.216 15.6438 126.148 15.9526 126.113 16.2613H130.951ZM108.205 11.4583C108.994 11.2525 109.817 11.081 110.641 10.9437C111.67 10.7722 112.734 10.7036 113.763 10.7036C114.689 10.6693 115.615 10.8408 116.507 11.1496C117.194 11.3897 117.811 11.8014 118.257 12.3503C118.703 12.8992 119.012 13.5511 119.183 14.2372C119.389 15.0263 119.458 15.8497 119.458 16.673V24.0491H115.787V17.1533C115.787 15.9526 115.615 15.1292 115.307 14.6146C114.998 14.1343 114.415 13.8598 113.557 13.8598C113.283 13.8598 113.008 13.8598 112.699 13.8941C112.391 13.8941 112.15 13.9285 111.91 13.9628V24.0491H108.205V11.4583ZM105.598 14.3058C105.255 14.2372 104.877 14.1343 104.431 14.0657C103.951 13.9628 103.471 13.9285 102.99 13.9285C102.716 13.9285 102.441 13.9628 102.133 13.9971C101.893 14.0314 101.652 14.0657 101.412 14.1343V24.1177H97.7071V11.6985C98.4618 11.424 99.2509 11.2182 100.04 11.0466C101.035 10.8065 102.064 10.7036 103.059 10.7379C103.299 10.7379 103.539 10.7722 103.779 10.7722C104.054 10.7722 104.328 10.8065 104.637 10.8751C104.912 10.9094 105.186 10.9437 105.495 11.0123C105.735 11.0466 105.975 11.1153 106.215 11.2182L105.598 14.3058ZM82.5776 17.6679C82.5433 16.6387 82.7491 15.6095 83.0922 14.6489C83.4009 13.8255 83.8812 13.1051 84.4988 12.4532C85.082 11.87 85.7338 11.424 86.4886 11.1496C87.2433 10.8408 88.0324 10.7036 88.8215 10.7036C90.6741 10.7036 92.1493 11.2868 93.2128 12.4189C94.2763 13.5511 94.8252 15.2321 94.8252 17.3935C94.8252 17.5993 94.8252 17.8395 94.7909 18.1139C94.7566 18.3884 94.7566 18.5942 94.7566 18.8001H86.3514C86.42 19.5205 86.7974 20.2067 87.4149 20.6184C88.1696 21.0987 89.0616 21.3388 89.9536 21.3045C90.6055 21.3045 91.2916 21.2359 91.9434 21.133C92.4924 21.0301 93.0413 20.8585 93.5559 20.6527L94.0705 23.6717C93.8303 23.8089 93.5559 23.8776 93.2814 23.9805C92.904 24.0834 92.5267 24.1863 92.1493 24.2206C91.7376 24.2892 91.3259 24.3579 90.8456 24.4265C90.3996 24.4608 89.9193 24.4951 89.439 24.4951C88.3755 24.5294 87.3463 24.3579 86.3514 23.9805C85.528 23.6717 84.8075 23.1914 84.19 22.5739C83.6068 21.9563 83.1951 21.2016 82.9206 20.4125C82.7148 19.4862 82.5776 18.5942 82.5776 17.6679ZM91.2916 16.2613C91.2916 15.9526 91.223 15.6438 91.1201 15.3351C91.0514 15.0263 90.8799 14.7861 90.7084 14.546C90.5025 14.3058 90.2624 14.1 89.9879 13.9628C89.6449 13.7912 89.3018 13.7226 88.9244 13.7226C88.547 13.7226 88.2039 13.7912 87.8609 13.9628C87.5864 14.1 87.312 14.2715 87.1061 14.5117C86.9003 14.7518 86.7287 15.0263 86.6258 15.3351C86.5229 15.6438 86.4543 15.9526 86.42 16.2613H91.2916ZM76.5738 17.4621C76.5738 15.0606 75.6818 13.8941 73.9321 13.8941C73.5548 13.8941 73.1774 13.9285 72.8 14.0314C72.4912 14.1 72.1825 14.2372 71.908 14.4088V21.133C72.0796 21.1673 72.3197 21.2016 72.5942 21.2359C72.8686 21.2702 73.1774 21.2702 73.5205 21.2702C74.4124 21.3388 75.2701 20.9614 75.819 20.241C76.3336 19.4176 76.6081 18.457 76.5738 17.4621ZM80.3476 17.5993C80.3476 18.5599 80.2104 19.5205 79.8673 20.4468C79.5928 21.2702 79.1468 21.9907 78.5636 22.6082C77.9461 23.2257 77.2256 23.706 76.4366 24.0148C75.5103 24.3579 74.5497 24.4951 73.5548 24.4951C73.1088 24.4951 72.6285 24.4608 72.1482 24.4265C71.6679 24.3922 71.1876 24.3235 70.7073 24.2892C70.2613 24.2206 69.8153 24.152 69.3693 24.0491C68.9233 23.9805 68.5459 23.8776 68.2371 23.7403V5.38596L71.9423 4.80273V11.3211C72.354 11.1496 72.8 11.0123 73.246 10.9094C73.7263 10.8065 74.2066 10.7722 74.6869 10.7722C75.5446 10.7722 76.368 10.9094 77.157 11.2868C77.8432 11.5956 78.4607 12.0759 78.941 12.6591C79.4556 13.3109 79.833 14.0314 80.0388 14.8204C80.2447 15.6781 80.3476 16.6387 80.3476 17.5993ZM64.7035 23.6374C63.9144 23.8432 63.0911 24.0148 62.2677 24.1177C61.2385 24.2892 60.1749 24.3579 59.1457 24.3579C58.1851 24.3922 57.2588 24.2206 56.3668 23.9119C55.6807 23.6374 55.0975 23.2257 54.6172 22.6768C54.1712 22.0936 53.8624 21.4417 53.6909 20.7213C53.485 19.9322 53.4164 19.0745 53.4164 18.2512V11.0123H57.1216V17.8395C57.1216 19.0402 57.2931 19.8979 57.6019 20.4125C57.9107 20.9271 58.4939 21.2016 59.3516 21.2016C59.626 21.2016 59.9005 21.2016 60.2093 21.1673C60.518 21.133 60.7582 21.133 60.9983 21.0644V11.0123H64.7035V23.6374ZM43.0899 15.7467C43.4673 15.3351 43.8104 14.9234 44.2221 14.5117C44.5995 14.0657 44.9768 13.654 45.3542 13.2423C45.7316 12.7963 46.0747 12.4189 46.3834 12.0416C46.6922 11.6642 47.001 11.3211 47.2411 11.0466H51.6324C50.7405 12.0416 49.8828 13.0365 49.0594 13.9628C48.2017 14.8891 47.3097 15.8497 46.3148 16.8103C46.8637 17.3249 47.3783 17.8395 47.8586 18.4227C48.3733 19.0402 48.8879 19.6578 49.4025 20.3439C49.8828 20.9957 50.3631 21.6819 50.7748 22.3337C51.1865 22.9856 51.5295 23.6031 51.804 24.152H47.5499C47.2754 23.706 46.9667 23.26 46.6236 22.7454C46.2805 22.2308 45.9031 21.7162 45.5601 21.1673C45.1827 20.6527 44.771 20.1381 44.325 19.6578C43.9476 19.2118 43.5359 18.8001 43.0899 18.457V24.1863H39.3848V5.38596L43.0899 4.80273V15.7467Z" fill="black"/>
</svg>
