<svg width="94" height="49" viewBox="0 0 94 49" fill="none" xmlns="http://www.w3.org/2000/svg">
<path d="M0 44.2142H3.09679V31.9895L7.89091 42.6504C8.45638 43.9356 9.23115 44.3973 10.7495 44.3973C12.2678 44.3973 13.0123 43.9406 13.5787 42.6504L18.3733 31.9895V44.2188H21.4705V32.0097C21.4705 30.8187 20.9932 30.2426 20.0109 29.9452C17.6586 29.2108 16.0802 29.8461 15.366 31.4342L10.6614 41.9555L6.10453 31.4296C5.41972 29.8415 3.81189 29.2062 1.45958 29.9406C0.476429 30.2385 0 30.8145 0 32.0051V44.2142ZM24.0445 34.2606H27.1404V40.9985C27.1115 41.3648 27.2579 42.224 28.9543 42.2502C29.8199 42.264 35.6344 42.2502 35.6886 42.2502V34.2271H38.7913C38.8051 34.2271 38.7881 45.1666 38.7886 45.2134C38.8055 47.9113 35.4407 48.4975 33.8902 48.5429H24.112V46.4591L33.9077 46.4586C35.9006 46.2475 35.6656 45.2575 35.6656 44.9238V44.1114H29.0837C26.0214 44.0838 24.0716 42.7468 24.0473 41.2092C24.045 41.0715 24.1134 34.3267 24.0454 34.2601L24.0445 34.2606Z" fill="#00618A"/>
<path d="M41.1797 44.2139H50.0831C51.125 44.2139 52.138 43.9959 52.9426 43.6182C54.2829 43.0031 54.9378 42.1691 54.9378 41.0772V38.8144C54.9378 37.9208 54.1934 37.0872 52.7347 36.5314C51.9604 36.2331 51.0075 36.0747 50.0845 36.0747H46.3323C45.082 36.0747 44.4862 35.6974 44.3375 34.8639C44.3077 34.7648 44.3077 34.6803 44.3077 34.5858V33.1767C44.3077 33.0973 44.3077 33.0174 44.3375 32.9183C44.4862 32.283 44.8139 32.104 45.9155 32.0003C46.005 32.0003 46.1239 31.9801 46.2139 31.9801H55.0576V29.916H46.3626C45.1118 29.916 44.4569 29.9954 43.8611 30.174C42.0132 30.75 41.2091 31.668 41.2091 33.2561V35.0626C41.2091 36.4525 42.788 37.6435 45.4373 37.9212C45.7356 37.9409 46.033 37.9607 46.3304 37.9607H49.5466C49.6659 37.9607 49.7852 37.9607 49.8743 37.9809C50.8565 38.0603 51.2742 38.2388 51.5716 38.5959C51.7552 38.7795 51.8103 38.9539 51.8103 39.1467V40.9533C51.8103 41.1718 51.6616 41.4499 51.3637 41.6877C51.0956 41.9263 50.6491 42.0847 50.0533 42.1246C49.934 42.1246 49.8449 42.1444 49.726 42.1444H41.1797V44.2089V44.2139ZM74.2561 40.621C74.2561 42.7452 75.8341 43.9362 79.0204 44.1745C79.3176 44.1975 79.6155 44.2106 79.9136 44.2139H87.9835V42.1494H79.854C78.0377 42.1494 77.3525 41.6927 77.3525 40.6008V29.9201H74.2557V40.6201L74.2561 40.621ZM56.9133 40.7284V33.3685C56.9133 31.4986 58.226 30.3644 60.822 30.0064C61.0989 29.9669 61.3782 29.947 61.6579 29.9468H67.5361C67.8257 29.9469 68.1149 29.9669 68.4018 30.0064C70.9978 30.3644 72.3105 31.4981 72.3105 33.3685V40.7284C72.3105 42.2453 71.7528 43.0573 70.4677 43.5865L73.5181 46.3404H69.9224L67.4544 44.1125L64.9699 44.2699H61.6579C61.091 44.2699 60.4943 44.1901 59.8375 44.0111C57.8639 43.474 56.9133 42.4395 56.9133 40.7284ZM60.2561 40.5448C60.2561 40.6444 60.286 40.7435 60.3158 40.8633C60.4994 41.7189 61.3003 42.1962 62.5189 42.1962H65.3325L62.7484 39.8632H66.3441L68.5932 41.8979C69.0085 41.6766 69.2816 41.3379 69.3734 40.9033C69.4033 40.8041 69.4033 40.7045 69.4033 40.6049V33.548C69.4033 33.4686 69.4033 33.3644 69.3734 33.2694C69.1898 32.474 68.3885 32.0163 67.1951 32.0163H62.5244C61.1475 32.0163 60.257 32.613 60.257 33.548V40.5503L60.2561 40.5448Z" fill="#E48E00"/>
<path d="M90.709 26.4959C88.8056 26.4445 87.351 26.6212 86.1081 27.1454C85.7547 27.2945 85.1915 27.2982 85.1337 27.7411C85.3278 27.9445 85.3586 28.2483 85.5123 28.4985C85.8093 28.979 86.311 29.623 86.7576 29.9599C87.2459 30.3284 87.749 30.7232 88.2736 31.0431C89.2053 31.6113 90.2454 31.9358 91.1423 32.5045C91.671 32.8396 92.1961 33.2618 92.712 33.641C92.9668 33.8282 93.1389 34.1192 93.4693 34.2363V34.1821C93.2949 33.9604 93.2504 33.6556 93.0907 33.4248L92.3871 32.7211C91.6986 31.8032 90.8256 31.0059 89.897 30.339C89.1567 29.8075 87.4993 29.0896 87.1904 28.2277L87.1362 28.1735C87.6613 28.1138 88.2759 27.9243 88.7611 27.7948C89.5748 27.5768 90.3023 27.6328 91.1432 27.4162L92.2801 27.0912V26.8746C91.8551 26.4385 91.5522 25.8616 91.089 25.4673C89.8773 24.4346 88.554 23.4042 87.1922 22.5436C86.4367 22.0662 85.5032 21.7569 84.7022 21.3525C84.4328 21.2166 83.9596 21.1459 83.782 20.9192C83.3615 20.3831 83.1325 19.7029 82.808 19.0833C82.1287 17.7751 81.4613 16.3459 80.8591 14.9694C80.4483 14.0307 80.1798 13.1049 79.6685 12.2627C77.2106 8.22178 74.5646 5.78272 70.4667 3.38589C69.5947 2.87642 68.545 2.67446 67.4351 2.41146L65.6487 2.30314C65.2852 2.15167 64.907 1.70646 64.5655 1.49073C63.2078 0.632427 59.7255 -1.23244 58.7199 1.21534C58.0851 2.76351 59.6686 4.27403 60.2354 5.0589C60.6329 5.60968 61.1424 6.22611 61.4261 6.84528C61.6129 7.25194 61.6455 7.65998 61.8052 8.09051C62.1985 9.14618 62.5409 10.3042 63.05 11.2841C63.307 11.7799 63.5906 12.3022 63.9161 12.7456C64.1157 13.0177 64.4577 13.1375 64.5114 13.558C64.1772 14.0261 64.158 14.7513 63.9698 15.3443C63.1239 18.012 63.4428 21.3272 64.6734 23.3018C65.0511 23.9077 65.9402 25.2075 67.1634 24.7091C68.2328 24.273 67.9896 22.9236 68.3003 21.7321C68.3692 21.4613 68.3269 21.2639 68.4628 21.0826V21.1368L69.4372 23.0852C70.1578 24.2464 71.4384 25.4604 72.5225 26.2797C73.0848 26.7043 73.5323 27.4387 74.2548 27.687V27.6328H74.2006C74.0597 27.4125 73.8394 27.3221 73.659 27.1463C73.2353 26.7309 72.764 26.2145 72.4138 25.739C71.4269 24.3997 70.5558 22.9346 69.7617 21.4085C69.3826 20.6801 69.0526 19.8764 68.7336 19.1351C68.6106 18.8492 68.612 18.4173 68.3549 18.269C68.0047 18.8125 67.4888 19.2512 67.218 19.8929C66.7847 20.9183 66.7287 22.1686 66.5686 23.4657C66.4735 23.4996 66.5158 23.4762 66.4602 23.5198C65.7066 23.3381 65.4413 22.5619 65.1613 21.8959C64.4526 20.2114 64.3214 17.5007 64.9447 15.5628C65.1053 15.0616 65.8351 13.4818 65.54 13.0187C65.3991 12.5565 64.9341 12.2843 64.6739 11.9354C64.3526 11.4994 64.0304 10.9238 63.8077 10.4199C63.2276 9.10717 62.9568 7.63382 62.3463 6.30597C62.0544 5.67165 61.5615 5.02998 61.1557 4.47002C60.7068 3.8458 60.2042 3.38497 59.8568 2.63407C59.7329 2.36556 59.5649 1.93641 59.7485 1.65964C59.766 1.58012 59.8059 1.50727 59.8635 1.44969C59.9211 1.39211 59.9939 1.35221 60.0734 1.33468C60.3874 1.09279 61.2622 1.415 61.589 1.55132C62.4565 1.91208 63.1817 2.25541 63.917 2.74239C64.2704 2.97189 64.627 3.42904 65.0534 3.5548H65.54C66.3019 3.73013 67.1556 3.60988 67.867 3.8256C69.1256 4.20794 70.2528 4.80324 71.2773 5.4495C74.3975 7.41947 76.9481 10.2239 78.6932 13.5736C78.9741 14.112 79.0952 14.6265 79.3426 15.1975C79.8415 16.3449 80.4699 17.5351 80.9665 18.6614C81.4622 19.786 81.9442 20.9197 82.6446 21.8551C83.0127 22.3462 84.4346 22.6106 85.0804 22.8832C85.5334 23.0746 86.2752 23.2743 86.7043 23.5327C87.5236 24.027 88.3177 24.6159 89.0865 25.1575C89.4706 25.4283 90.6516 26.0218 90.7104 26.5106L90.709 26.4959Z" fill="#00618A"/>
<path fill-rule="evenodd" clip-rule="evenodd" d="M66.5135 5.87201C66.1165 5.86467 65.836 5.91516 65.5391 5.98033V6.03449H65.5932C65.7823 6.42371 66.1165 6.67386 66.3505 7.00892L66.8922 8.14538L66.9463 8.09122C67.2814 7.85484 67.4351 7.47709 67.4328 6.90014C67.2984 6.75878 67.2786 6.58161 67.162 6.4127C67.0074 6.1878 66.7031 6.0602 66.5126 5.87109L66.5135 5.87201Z" fill="#00618A"/>
<path fill-rule="evenodd" clip-rule="evenodd" d="M89.4355 42.0907C89.4355 43.4539 90.5128 44.3728 91.7176 44.3728C92.9225 44.3728 93.9997 43.4539 93.9997 42.0907C93.9997 40.7275 92.9225 39.8086 91.7176 39.8086C90.5128 39.8086 89.4355 40.7275 89.4355 42.0907ZM93.4884 42.0907C93.4884 43.1252 92.6976 43.8982 91.7167 43.8982C90.7253 43.8982 89.945 43.1252 89.945 42.0907C89.945 41.0561 90.7244 40.2832 91.7167 40.2832C92.6967 40.2832 93.4884 41.0561 93.4884 42.0907ZM92.3318 43.3933H92.8426L92.0945 42.2495C92.4961 42.2068 92.7999 42.0117 92.7999 41.5371C92.7999 41.0075 92.4649 40.789 91.8204 40.789H90.8038V43.3937H91.2421V42.2678H91.6497L92.3313 43.3937L92.3318 43.3933ZM91.2421 41.9016V41.1534H91.747C92.0086 41.1534 92.3253 41.2021 92.3253 41.5068C92.3253 41.8717 92.0394 41.9025 91.7103 41.9025H91.2421V41.9016Z" fill="#E48E00"/>
</svg>
