<svg width="47" height="47" viewBox="0 0 47 47" fill="none" xmlns="http://www.w3.org/2000/svg">
<g id="photosshop">
<g id="Surfaces">
<g id="Photo_Surface">
<g id="Outline_no_shadow">
<path id="Vector" d="M8.30478 0H38.5928C43.1849 0 46.8976 3.80792 46.8976 8.51772V38.3799C46.8976 43.0897 43.1849 46.8976 38.5928 46.8976H8.30478C3.71273 46.8976 0 43.0897 0 38.3799V8.51772C0 3.80792 3.71273 0 8.30478 0Z" fill="#001E36"/>
</g>
</g>
</g>
<g id="Outlined_Mnemonics_Logos">
<g id="Ps">
<path id="Vector_2" d="M10.5527 32.8875V12.2645C10.5527 12.1242 10.6114 12.0441 10.7481 12.0441C11.0803 12.0441 11.393 12.0441 11.8424 12.024C12.3114 12.004 12.7999 12.004 13.3275 11.984C13.8551 11.9639 14.4218 11.9639 15.0275 11.9439C15.6333 11.9238 16.2195 11.9238 16.8057 11.9238C18.4081 11.9238 19.7368 12.1242 20.8311 12.5451C21.8082 12.8858 22.707 13.447 23.4496 14.1885C24.0749 14.8299 24.5634 15.6115 24.876 16.4733C25.1691 17.315 25.3255 18.1768 25.3255 19.0787C25.3255 20.8023 24.9347 22.2253 24.153 23.3476C23.3714 24.4699 22.2771 25.3117 21.007 25.7927C19.6782 26.2937 18.2127 26.4741 16.6103 26.4741C16.1414 26.4741 15.8287 26.4741 15.6333 26.4541C15.4379 26.434 15.1643 26.434 14.7931 26.434V32.8674C14.8126 33.0077 14.7149 33.1279 14.5781 33.148C14.5586 33.148 14.539 33.148 14.4999 33.148H10.7872C10.6309 33.148 10.5527 33.0678 10.5527 32.8875ZM14.8126 15.9121V22.6461C15.0862 22.6662 15.3402 22.6862 15.5747 22.6862H16.6103C17.3724 22.6862 18.1345 22.566 18.8575 22.3255C19.4828 22.1451 20.03 21.7643 20.4598 21.2633C20.8702 20.7622 21.0656 20.0808 21.0656 19.199C21.0852 18.5777 20.9288 17.9564 20.6162 17.4153C20.284 16.8942 19.815 16.4933 19.2483 16.2729C18.5253 15.9723 17.7437 15.852 16.9425 15.872C16.4345 15.872 15.985 15.872 15.6138 15.8921C15.223 15.872 14.9494 15.8921 14.8126 15.9121Z" fill="#31A8FF"/>
<path id="Vector_3" d="M37.5191 21.424C36.9329 21.1033 36.3076 20.8828 35.6432 20.7425C34.9202 20.5822 34.1972 20.482 33.4546 20.482C33.0638 20.462 32.6534 20.5221 32.2822 20.6223C32.0281 20.6824 31.8132 20.8227 31.6764 21.0231C31.5787 21.1835 31.5201 21.3839 31.5201 21.5642C31.5201 21.7446 31.5983 21.925 31.7155 22.0853C31.8914 22.3058 32.1258 22.4862 32.3799 22.6265C32.8293 22.867 33.2983 23.0874 33.7673 23.2878C34.8225 23.6486 35.8386 24.1496 36.7765 24.7509C37.4214 25.1718 37.949 25.7329 38.3202 26.4143C38.6329 27.0557 38.7892 27.7571 38.7697 28.4786C38.7892 29.4206 38.5156 30.3626 38.0076 31.1442C37.4605 31.9458 36.6984 32.5671 35.819 32.9279C34.8615 33.3488 33.6891 33.5692 32.2822 33.5692C31.3833 33.5692 30.504 33.4891 29.6246 33.3087C28.9407 33.1884 28.2568 32.968 27.6315 32.6674C27.4947 32.5872 27.397 32.4469 27.4166 32.2866V28.7993C27.4166 28.7392 27.4361 28.659 27.4947 28.6189C27.5533 28.5788 27.612 28.5989 27.6706 28.639C28.4327 29.0999 29.2338 29.4206 30.0936 29.621C30.8362 29.8214 31.6178 29.9216 32.3994 29.9216C33.142 29.9216 33.6696 29.8214 34.0213 29.6411C34.3339 29.5008 34.5489 29.1601 34.5489 28.7993C34.5489 28.5187 34.3926 28.2582 34.0799 27.9976C33.7673 27.7371 33.1224 27.4365 32.1649 27.0557C31.1684 26.6949 30.2499 26.2139 29.3902 25.6127C28.7844 25.1718 28.2763 24.5905 27.9051 23.9091C27.5924 23.2678 27.4361 22.5663 27.4556 21.8649C27.4556 21.0031 27.6901 20.1814 28.12 19.4398C28.6085 18.6382 29.3315 17.9968 30.1718 17.596C31.0902 17.115 32.2431 16.8945 33.6305 16.8945C34.4316 16.8945 35.2524 16.9547 36.0535 17.0749C36.6397 17.1551 37.2064 17.3154 37.734 17.5359C37.8122 17.5559 37.8903 17.6361 37.9294 17.7162C37.949 17.7964 37.9685 17.8766 37.9685 17.9567V21.2235C37.9685 21.3037 37.9294 21.3839 37.8708 21.424C37.6949 21.464 37.5972 21.464 37.5191 21.424Z" fill="#31A8FF"/>
</g>
</g>
</g>
</svg>
