<svg width="75" height="38" viewBox="0 0 75 38" fill="none" xmlns="http://www.w3.org/2000/svg">
<path d="M5.93501 7.92773H17.058C20.3226 7.95514 22.6883 8.89641 24.1551 10.75C25.6218 12.6035 26.1057 15.1353 25.6077 18.3451C25.4143 19.8118 24.9851 21.2504 24.3211 22.6615C23.6844 24.0726 22.7995 25.3451 21.6649 26.4798C20.2811 27.9184 18.8011 28.8314 17.224 29.2191C15.6468 29.6067 14.0141 29.8001 12.3266 29.8001H7.34613L5.76899 37.6858H0L5.93501 7.92773ZM10.7909 12.6591L8.30071 25.1102C8.46673 25.1376 8.63274 25.1517 8.79875 25.1517C8.99218 25.1517 9.18638 25.1517 9.3798 25.1517C12.036 25.1791 14.2498 24.9168 16.0204 24.3631C17.7909 23.7821 18.9812 21.7625 19.5897 18.3036C20.0877 15.3984 19.5897 13.7241 18.0956 13.2817C16.6288 12.8392 14.7894 12.6317 12.5756 12.6591C12.2435 12.6865 11.9256 12.7006 11.621 12.7006C11.3446 12.7006 11.054 12.7006 10.7494 12.7006L10.7909 12.6591Z" fill="black"/>
<path d="M32.1796 0H37.9071L36.2885 7.92718H41.4349C44.2572 7.98278 46.3598 8.56383 47.7435 9.67033C49.1546 10.7768 49.5696 12.8802 48.9886 15.9789L46.2078 29.7996H40.3973L43.0536 16.6014C43.33 15.2177 43.247 14.2357 42.8045 13.6547C42.3621 13.0736 41.4075 12.7831 39.9408 12.7831L35.3339 12.7416L31.9306 29.7996H26.2031L32.1796 0Z" fill="black"/>
<path d="M55.1381 7.92773H66.2611C69.5258 7.95514 71.8915 8.89641 73.3582 10.75C74.8249 12.6035 75.3089 15.1353 74.8108 18.3451C74.6174 19.8118 74.1883 21.2504 73.5242 22.6615C72.8876 24.0726 72.0027 25.3451 70.868 26.4798C69.4843 27.9184 68.0042 28.8314 66.4271 29.2191C64.85 29.6067 63.2172 29.8001 61.5297 29.8001H56.5493L54.9721 37.6858H49.2031L55.1381 7.92773ZM59.994 12.6591L57.5038 25.1102C57.6698 25.1376 57.8359 25.1517 58.0019 25.1517C58.1953 25.1517 58.3895 25.1517 58.5829 25.1517C61.2392 25.1791 63.4529 24.9168 65.2235 24.3631C66.9941 23.7821 68.1843 21.7625 68.7928 18.3036C69.2908 15.3984 68.7928 13.7241 67.2987 13.2817C65.832 12.8392 63.9925 12.6317 61.7787 12.6591C61.4467 12.6865 61.1287 12.7006 60.8241 12.7006C60.5477 12.7006 60.2572 12.7006 59.9525 12.7006L59.994 12.6591Z" fill="black"/>
</svg>
