<svg width="47" height="43" viewBox="0 0 47 43" fill="none" xmlns="http://www.w3.org/2000/svg">
<g id="sketch">
<g id="sketch-symbol">
<path id="Path" d="M10.2321 1.3993L23.4485 0L36.6649 1.3993L46.897 15.1552L23.4485 42.5009L0 15.1552L10.2321 1.3993Z" fill="#FDB300"/>
<g id="Group">
<path id="Path_2" d="M9.49782 15.1562L23.4485 42.502L0 15.1562H9.49782Z" fill="#EA6C00"/>
<path id="Path_3" d="M37.4006 15.1562L23.4499 42.502L46.8984 15.1562H37.4006Z" fill="#EA6C00"/>
<path id="Path_4" d="M9.49805 15.1562H37.3994L23.4487 42.502L9.49805 15.1562Z" fill="#FDAD00"/>
</g>
<g id="Group_2">
<path id="Path_5" d="M23.4487 0L10.2323 1.39929L9.49805 15.1552L23.4487 0Z" fill="#FDD231"/>
<path id="Path_6" d="M23.4497 0L36.6662 1.39929L37.4004 15.1552L23.4497 0Z" fill="#FDD231"/>
<path id="Path_7" d="M46.8984 15.1563L36.6663 1.40039L37.4006 15.1563H46.8984Z" fill="#FDAD00"/>
<path id="Path_8" d="M0 15.1563L10.232 1.40039L9.49782 15.1563H0Z" fill="#FDAD00"/>
<path id="Path_9" d="M23.4487 0L9.49805 15.1552H37.3994L23.4487 0Z" fill="#FEEEB7"/>
</g>
</g>
</g>
</svg>
