<svg width="253" height="410" viewBox="0 0 253 410" fill="none" xmlns="http://www.w3.org/2000/svg">
<path d="M125.016 379.897C71.4374 379.897 37.7031 340.21 37.7031 278.695C37.7031 217.179 73.4218 177.491 125.016 177.491C176.609 177.491 214.312 217.179 214.312 278.695C214.312 338.226 178.594 379.897 125.016 379.897ZM142.875 143.757C142.875 141.773 144.859 129.866 144.859 112.007C142.875 88.1944 134.937 54.46 113.109 32.6319C91.2812 10.8038 57.5468 2.86632 33.7344 0.881944C15.875 -1.10243 1.98442 0.881944 1.98442 0.881944C1.98442 0.881944 0 14.7725 0 32.6319C1.98437 56.4444 9.92191 90.1788 31.75 112.007C51.5938 131.851 79.3749 139.788 103.187 141.773C41.6719 151.694 0 203.288 0 274.726C0 354.101 51.5937 409.663 125.016 409.663C198.437 409.663 252.015 354.101 252.015 274.726C250.031 205.272 206.375 151.695 142.875 143.757Z" fill="#E1EECA"/>
</svg>
