<svg width="121" height="75" viewBox="0 0 121 75" fill="none" xmlns="http://www.w3.org/2000/svg">
<g id="logo">
<path id="Vector" d="M9.56005 15.2656C14.7557 15.2656 18.2888 18.1752 18.4966 22.9552L14.7557 22.9552C14.5479 20.2535 12.6775 18.5909 9.56005 18.5909C6.02699 18.5909 3.94871 20.2535 3.94871 22.9552C3.94871 25.2413 5.19568 26.4883 7.89743 27.1118L12.4696 28.1509C17.0418 29.19 19.3279 31.684 19.3279 35.4248C19.3279 40.4127 15.3792 43.5301 9.56005 43.5301C3.94872 43.5301 0.207827 40.6205 0 35.8405L3.74089 35.8405C3.74089 38.5422 6.02699 40.2048 9.56005 40.2048C13.3009 40.2048 15.587 38.5422 15.587 35.8405C15.587 33.7622 14.3401 32.3074 11.8461 31.684L7.27395 30.6448C2.70175 29.6057 0.415656 27.1118 0.415656 23.163C1.5794e-06 18.383 3.94872 15.2656 9.56005 15.2656Z" fill="black"/>
<path id="Vector_2" d="M26.8034 19.0018L26.8034 30.0166L33.0382 30.0166C36.7791 30.0166 38.8574 27.9384 38.8574 24.4053C38.8574 20.8723 36.7791 19.0018 33.246 19.0018L26.8034 19.0018ZM26.8034 33.3419L26.8034 43.1098L23.0625 43.1098L23.0625 15.4688L33.8695 15.4687C39.273 15.4687 42.8061 19.0018 42.8061 24.4053C42.8061 29.601 39.273 33.3419 33.8695 33.3419L26.8034 33.3419Z" fill="black"/>
<path id="Vector_3" d="M78.3503 28.9806L85.0007 28.9806C88.5338 28.9806 90.4043 27.1102 90.4043 23.9928C90.4043 20.8754 88.326 19.0049 85.0007 19.0049L78.3503 19.0049L78.3503 28.9806ZM74.6094 43.3206L74.6094 15.6797L85.0007 15.6797C90.8199 15.6797 94.353 18.7971 94.353 23.9928C94.353 27.7336 92.4825 30.6432 88.9495 31.6823L94.5608 43.3206L90.4043 43.3206L85.2086 32.5136L78.1424 32.5136L78.1424 43.3206L74.6094 43.3206Z" fill="black"/>
<path id="Vector_4" d="M97.8828 15.6797L118.042 15.6797V19.2127L109.937 19.2127L109.937 43.3206L106.196 43.3206L106.196 19.2127L97.8828 19.2127V15.6797Z" fill="black"/>
<path id="Vector_5" d="M5.40495 62.6464L5.40495 74.2847H1.66406L1.66406 46.8516L18.2902 46.8516L18.2902 50.1768L5.40495 50.1768L5.40495 59.3212L16.212 59.3212L16.212 62.6464L5.40495 62.6464Z" fill="black"/>
<path id="Vector_6" d="M23.0625 74.2847L23.0625 46.8516L39.6887 46.8516L39.6887 50.1768L26.8034 50.1768L26.8034 58.9055L38.4417 58.9055L38.4417 62.0229L26.8034 62.0229L26.8034 70.7517L39.6887 70.7517V74.2847L23.0625 74.2847Z" fill="black"/>
<path id="Vector_7" d="M48.0065 60.1572L54.657 60.1572C58.19 60.1572 60.0605 58.2868 60.0605 55.1694C60.0605 52.052 57.9822 50.1815 54.657 50.1815L48.0065 50.1815L48.0065 60.1572ZM44.2656 74.2894L44.2656 46.6484L54.657 46.6484C60.4761 46.6484 64.0092 49.7658 64.0092 54.9615C64.0092 58.7024 62.1388 61.612 58.6057 62.6511L64.217 74.2894H60.0605L54.8648 63.4824L48.0065 63.4824L48.0065 74.2894H44.2656Z" fill="black"/>
<path id="Vector_8" d="M68.1641 74.2894L68.1641 46.6484L71.905 46.6484L81.465 69.7173L91.0251 46.6484H94.766L94.766 74.2894H91.0251L91.0251 63.4824C91.0251 58.2868 91.0251 56.4163 91.2329 54.5459L83.1276 74.2894H79.5946L71.6971 54.5459C71.905 55.7928 71.905 58.7024 71.905 62.4433L71.905 74.2894H68.1641Z" fill="black"/>
<path id="Vector_9" d="M103.294 64.3137L112.647 64.3137L108.49 52.8833C108.282 52.2598 108.074 51.6363 108.074 51.2206C108.074 51.6363 107.866 52.2598 107.659 52.8833L103.294 64.3137ZM95.8125 74.2894L105.788 46.6484L109.945 46.6484L120.128 74.2894L116.18 74.2894L113.686 67.4311L102.047 67.4311L99.5534 74.2894H95.8125Z" fill="black"/>
<path id="Vector_10" d="M58.6087 39.7874C52.9974 39.7874 49.4643 35.6308 49.4643 29.1882C49.4643 22.7455 53.2052 18.589 58.6087 18.589C64.0122 18.589 67.9609 22.7455 67.9609 29.1882C67.9609 35.423 64.2201 39.7874 58.6087 39.7874ZM60.4792 15.0559C60.4792 14.8481 60.687 13.6011 60.687 11.7307C60.4792 9.23676 59.6479 5.7037 57.3618 3.4176C55.0757 1.1315 51.5426 0.300195 49.0487 0.0923676C47.1782 -0.11546 45.7235 0.0923676 45.7235 0.0923676C45.7235 0.0923676 45.5156 1.54716 45.5156 3.4176C45.7235 5.91153 46.5548 9.44459 48.8409 11.7307C50.9191 13.809 53.8287 14.6403 56.3226 14.8481C49.88 15.8872 45.5156 21.2907 45.5156 28.7725C45.5156 37.0856 50.9191 42.9048 58.6087 42.9048C66.2983 42.9048 71.9097 37.0856 71.9097 28.7725C71.7018 21.4986 67.1296 15.8872 60.4792 15.0559Z" fill="black"/>
</g>
</svg>
