<svg width="100" height="59" viewBox="0 0 100 59" fill="none" xmlns="http://www.w3.org/2000/svg">
<g clip-path="url(#clip0_21_707)">
<path d="M85.794 21.1484V21.1603L74.4982 33.0431L62.6797 21.1839V21.1484H48.4737H34.2677H0V35.4694H11.0821V58.9984H25.288V35.4694H34.2677V58.9984H48.4737L60.8029 58.9865L60.7673 47.0445H61.7413L67.0032 58.9865H81.8149L86.3879 48.1097H87.4451L87.5401 58.9865L100 58.9984V21.1484H85.794Z" fill="#182435"/>
<path d="M48.354 19.513C53.9248 19.513 58.4502 15.1457 58.4502 9.74867C58.4502 4.36351 53.9248 -0.015625 48.354 -0.015625C42.7833 -0.015625 38.2578 4.35168 38.2578 9.74867C38.2578 15.1457 42.7833 19.513 48.354 19.513Z" fill="#182435"/>
</g>
<defs>
<clipPath id="clip0_21_707">
<rect width="100" height="59" fill="white"/>
</clipPath>
</defs>
</svg>
