<svg width="10" height="9" viewBox="0 0 10 9" xmlns="http://www.w3.org/2000/svg">
<path d="M9.23672 1.51387L9.23695 1.5141C9.44846 1.72561 9.44846 2.0684 9.23695 2.27991L4.02861 7.48825L4.02816 7.4887C3.92292 7.5942 3.78544 7.64701 3.64571 7.64701C3.50597 7.64701 3.36849 7.5942 3.26325 7.4887L3.2628 7.48825L0.658632 4.88408C0.447123 4.67257 0.447123 4.32978 0.658632 4.11827L0.658858 4.11804C0.869794 3.90684 1.21328 3.90684 1.42422 4.11804L1.42449 4.11832L3.2922 5.98551L3.64573 6.33894L3.99924 5.98548L8.47112 1.51412L8.47136 1.51387C8.6823 1.30267 9.02579 1.30267 9.23672 1.51387Z" fill="currentColor" stroke="currentColor"/>
</svg>
