<svg width="19" height="19" viewBox="0 0 19 19" xmlns="http://www.w3.org/2000/svg">
<path fill-rule="evenodd" clip-rule="evenodd" d="M0.502441 0.539062H18.4609V18.4975H0.502441V0.539062ZM1.74095 1.77757V17.259H17.2224V1.77757H1.74095Z" fill="currentColor"/>
<path fill-rule="evenodd" clip-rule="evenodd" d="M5.14643 4.5645L13.5064 4.5645C14.0194 4.5645 14.4353 4.98038 14.4353 5.49339L14.4353 13.8533C14.4353 14.3663 14.0194 14.7822 13.5064 14.7822C12.9934 14.7822 12.5775 14.3663 12.5775 13.8533L12.5775 7.73591L5.49362 14.8198L4.17998 13.5061L11.2639 6.42227L5.14643 6.42227C4.63342 6.42227 4.21754 6.00639 4.21754 5.49339C4.21754 4.98038 4.63342 4.5645 5.14643 4.5645Z" fill="currentColor"/>
</svg>
