<svg width="34" height="34" viewBox="0 0 34 34" xmlns="http://www.w3.org/2000/svg">
<path d="M28.7632 4.22888C28.3538 4.24669 27.9781 4.36443 27.6481 4.49451C27.3432 4.61458 26.2483 5.07477 24.5049 5.80603C22.7614 6.53729 20.4512 7.50685 17.9888 8.54252C13.0638 10.6139 7.52948 12.9439 4.69369 14.1373C4.5963 14.1778 4.20081 14.2989 3.764 14.6325C3.32618 14.9669 2.83984 15.6927 2.83984 16.4864C2.83984 17.1266 3.15946 17.7787 3.54541 18.1521C3.93136 18.5254 4.3225 18.6999 4.64941 18.83C5.60579 19.2108 8.56117 20.3911 9.8457 20.9052C10.2957 22.2537 11.3526 25.4303 11.5999 26.2121H11.5972C11.7984 26.8485 11.9944 27.2632 12.2668 27.6094C12.4029 27.7825 12.5654 27.9394 12.7648 28.0632C12.8413 28.1107 12.926 28.1476 13.0111 28.1822C13.0229 28.1872 13.0351 28.1885 13.047 28.1932L13.0138 28.1849C13.0385 28.1949 13.0606 28.2095 13.0858 28.2181C13.1267 28.2322 13.1551 28.2318 13.2103 28.243C13.4044 28.3028 13.5981 28.3427 13.7775 28.3427C14.5476 28.3427 15.0199 27.9248 15.0199 27.9248L15.0503 27.9027L18.3761 25.0887L22.4491 28.8545C22.5219 28.9575 23.1042 29.7483 24.4551 29.7483C25.2599 29.7483 25.899 29.3526 26.3062 28.9348C26.7133 28.5169 26.9669 28.0894 27.0809 27.5098V27.5043V27.5015C27.1601 27.0901 31.0708 7.46066 31.0708 7.46066L31.0625 7.49386C31.1839 6.9522 31.2197 6.42838 31.0763 5.89457C30.933 5.36076 30.5461 4.83982 30.0802 4.56645C29.6144 4.29308 29.1726 4.21108 28.7632 4.22888ZM28.2043 7.33061C28.0506 8.10184 24.5705 25.586 24.3444 26.7461L20.2992 23.008C19.2564 22.044 17.6305 22.0101 16.5472 22.925L14.4831 24.6709L15.5843 20.3656C15.5843 20.3656 23.1813 12.6757 23.6388 12.2281C24.0072 11.8697 24.0843 11.744 24.0843 11.6193C24.0843 11.4536 23.999 11.3344 23.8021 11.3344C23.625 11.3344 23.3845 11.504 23.257 11.5834C21.63 12.5978 14.6637 16.5678 11.29 18.4869C11.1633 18.411 11.0387 18.3322 10.8999 18.2766C9.79295 17.8335 7.66532 16.9805 6.42025 16.4836C9.35879 15.2469 14.3959 13.1276 19.0872 11.1545C21.5493 10.119 23.8588 9.14858 25.6006 8.41801C27.0709 7.80133 27.8378 7.48202 28.2043 7.33061ZM24.3001 26.9509H24.3029L24.3001 26.962C24.3025 26.9499 24.2985 26.9596 24.3001 26.9509Z" fill="currentColor"/>
</svg>
