<svg width="87" height="69" viewBox="0 0 87 69" fill="none" xmlns="http://www.w3.org/2000/svg">
<path fill-rule="evenodd" clip-rule="evenodd" d="M18.9893 0V34.3906H25.8029V63.2139H35.0211V69H37.4495L46.2866 34.7603H44.1091V0H35.6998C37.2261 0.649629 38.3727 1.64744 39.2766 2.77325C41.7541 5.78426 41.9026 10.4236 41.9026 17.1849C41.9026 23.9461 41.7541 28.5855 39.2766 31.5965C37.6897 33.5727 35.3606 35.151 31.5449 35.151C27.7293 35.151 25.3981 33.5706 23.8133 31.5965C21.3357 28.5855 21.1873 23.9461 21.1873 17.1849C21.1873 10.4236 21.3357 5.78426 23.8133 2.77325C24.718 1.64663 25.8639 0.649282 27.3891 0H18.9893ZM11.9517 34.7603H18.7654V69H0.701341V56.7983H3.62423C11.2555 56.7983 13.5365 52.4546 13.5365 45.5955V45.5934C13.5365 38.7322 11.2576 34.3906 3.62423 34.3906H0.701342V16.4984L4.4689 28.4904H8.08592L11.9517 16.4485V34.7603ZM51.1467 34.3906H53.3192L62.2517 69H67.0154V34.3906H73.0722C71.5212 33.7416 70.3596 32.7345 69.4461 31.5965C66.9685 28.5855 66.8201 23.9461 66.8201 17.1849C66.8201 10.4236 66.9685 5.78426 69.4461 2.77325C70.3508 1.64663 71.4968 0.649282 73.0219 0H64.6258V34.7603H58.6295L51.1467 17.5833V34.3906ZM54.9418 69L53.9129 64.0531H45.7861L44.7572 69H54.9418ZM81.3041 69H74.0508V52.3568L81.3041 69ZM86.0011 29.8774V34.3906H81.2842C82.834 33.742 83.9949 32.7353 84.9094 31.5965C85.3398 31.0735 85.6999 30.5013 86.0011 29.8774ZM77.1777 35.151C78.4361 35.151 79.5328 34.9794 80.4945 34.6784V51.5676L73.1789 34.4345C74.2958 34.8848 75.6117 35.151 77.1777 35.151ZM12.601 0H0.00195312L6.3025 16.8441L12.601 0ZM34.865 17.1849C34.865 21.4286 34.7668 25.8223 33.9242 27.4507C33.527 28.2399 32.8349 28.8333 31.5449 28.8333C30.257 28.8333 29.5629 28.2419 29.1656 27.4507C28.323 25.8223 28.2248 21.4286 28.2248 17.1849C28.2248 12.9412 28.323 8.54749 29.1656 6.91913C29.5629 6.12993 30.2549 5.53647 31.5449 5.53647C32.8328 5.53647 33.527 6.12785 33.9242 6.91913C34.7668 8.54749 34.865 12.9412 34.865 17.1849ZM57.5883 0H50.4174L57.5883 16.7941V0ZM84.9094 2.77325C84.0055 1.64744 82.8596 0.649629 81.3335 0H86.0011V4.49243C85.6999 3.86851 85.3398 3.29631 84.9094 2.77325ZM80.4979 17.1849C80.4979 21.4286 80.3996 25.8223 79.557 27.4507C79.1598 28.2399 78.4677 28.8333 77.1777 28.8333C75.8898 28.8333 75.1957 28.2419 74.7984 27.4507C73.9558 25.8223 73.8576 21.4286 73.8576 17.1849C73.8576 12.9412 73.9558 8.54749 74.7984 6.91913C75.1957 6.12993 75.8877 5.53647 77.1777 5.53647C78.4656 5.53647 79.1598 6.12785 79.557 6.91913C80.3996 8.54749 80.4979 12.9412 80.4979 17.1849ZM47.1263 57.7354H52.5769H52.579L49.8527 44.7043L47.1263 57.7354ZM3.42561 50.4806C6.40077 50.4806 6.49903 47.8153 6.49903 45.5934V45.5955C6.49903 43.3737 6.39867 40.7083 3.42561 40.7083H0.699249V50.4806H3.42561Z" fill="black"/>
</svg>
