<svg width="87" height="65" viewBox="0 0 87 65" fill="none" xmlns="http://www.w3.org/2000/svg">
<path fill-rule="evenodd" clip-rule="evenodd" d="M0.359375 0.71875H84.5973V64.1906H0.359375V0.71875Z" fill="#182435"/>
<path fill-rule="evenodd" clip-rule="evenodd" d="M86.002 16.5267C86.002 10.3072 85.866 6.0395 83.5961 3.26972C82.1442 1.45385 80.0104 0 76.5127 0C73.017 0 70.8831 1.45193 69.4293 3.26972C67.1594 6.0395 67.0234 10.3072 67.0234 16.5267C67.0234 22.7463 67.1594 27.014 69.4293 29.7838C70.8812 31.5996 73.017 33.0535 76.5127 33.0535C80.0085 33.0535 82.1423 31.6016 83.5961 29.7838C85.866 27.014 86.002 22.7463 86.002 16.5267ZM79.5545 16.5267C79.5545 20.4305 79.4645 24.4721 78.6925 25.97C78.3286 26.696 77.6946 27.2419 76.5127 27.2419C75.3328 27.2419 74.6968 26.6979 74.3329 25.97C73.561 24.4721 73.4709 20.4305 73.4709 16.5267C73.4709 12.623 73.561 8.58135 74.3329 7.08344C74.6968 6.35748 75.3309 5.81156 76.5127 5.81156C77.6926 5.81156 78.3286 6.35556 78.6925 7.08344C79.4645 8.58135 79.5545 12.623 79.5545 16.5267Z" fill="#DDDDFF"/>
<path fill-rule="evenodd" clip-rule="evenodd" d="M65.0075 32.6947V0.367188H58.56V16.168L51.8405 0.367188H46.2109V32.6947H52.6584V16.8939L59.5139 32.6947H65.0075Z" fill="#DDDDFF"/>
<path fill-rule="evenodd" clip-rule="evenodd" d="M44.1973 16.5267C44.1973 10.3072 44.0613 6.0395 41.7915 3.26972C40.3395 1.45385 38.2038 0 34.708 0C31.2123 0 29.0784 1.45193 27.6246 3.26972C25.3547 6.0395 25.2188 10.3072 25.2188 16.5267C25.2188 22.7463 25.3547 27.014 27.6246 29.7838C29.0765 31.5996 31.2123 33.0535 34.708 33.0535C38.2038 33.0535 40.3376 31.6016 41.7915 29.7838C44.0613 27.014 44.1973 22.7463 44.1973 16.5267ZM37.7498 16.5267C37.7498 20.4305 37.6598 24.4721 36.8878 25.97C36.5239 26.696 35.8899 27.2419 34.708 27.2419C33.5281 27.2419 32.8922 26.6979 32.5282 25.97C31.7563 24.4721 31.6662 20.4305 31.6662 16.5267C31.6662 12.623 31.7563 8.58135 32.5282 7.08344C32.8922 6.35748 33.5262 5.81156 34.708 5.81156C35.888 5.81156 36.5239 6.35556 36.8878 7.08344C37.6598 8.58135 37.7498 12.623 37.7498 16.5267Z" fill="#DDDDFF"/>
<path fill-rule="evenodd" clip-rule="evenodd" d="M23.2022 32.6947V0.367188H17.4806L11.5791 16.2139L5.67556 0.367188H0V32.6947H6.4475V15.896L9.89919 26.9272H13.213L16.7547 15.85V32.6947H23.2022Z" fill="#DDDDFF"/>
<path fill-rule="evenodd" clip-rule="evenodd" d="M85.9997 64.6772V32.3516H79.5522V48.1523L72.8327 32.3516H67.2031V64.6772H73.6487V48.8783L80.5061 64.6772H85.9997Z" fill="#DDDDFF"/>
<path fill-rule="evenodd" clip-rule="evenodd" d="M62.9664 64.6772L54.6571 32.3516H48.3015L39.9922 64.6772H46.7117L47.7556 59.6375H55.2011L56.245 64.6772H62.9645H62.9664ZM53.9771 53.826H48.9834L51.4812 41.8389L53.979 53.826H53.9771Z" fill="#DDDDFF"/>
<path fill-rule="evenodd" clip-rule="evenodd" d="M37.8928 64.6772V58.8656H29.4475V32.3516H23V64.6772H37.8928Z" fill="#DDDDFF"/>
<path fill-rule="evenodd" clip-rule="evenodd" d="M18.2066 42.6568C18.2066 36.3453 16.1187 32.3516 9.12533 32.3516H0V64.6772H6.4475V52.964H9.12533C16.1168 52.964 18.2066 48.9683 18.2066 42.6587V42.6568ZM11.7591 42.6568C11.7591 44.7006 11.6691 47.1525 8.94336 47.1525H6.44558V38.1631H8.94336C11.6672 38.1631 11.7591 40.6149 11.7591 42.6587V42.6568Z" fill="#DDDDFF"/>
</svg>
