<svg width="0" height="0" class="hidden">
  <symbol xmlns="http://www.w3.org/2000/svg" viewBox="0 0 51 16" id="ic_arrow_hor">
    <path d="M50.7071 8.70711C51.0976 8.31659 51.0976 7.68342 50.7071 7.2929L44.3431 0.928936C43.9526 0.538412 43.3195 0.538412 42.9289 0.928936C42.5384 1.31946 42.5384 1.95263 42.9289 2.34315L48.5858 8L42.9289 13.6569C42.5384 14.0474 42.5384 14.6805 42.9289 15.0711C43.3195 15.4616 43.9526 15.4616 44.3431 15.0711L50.7071 8.70711ZM-8.74228e-08 9L50 9L50 7L8.74228e-08 7L-8.74228e-08 9Z" fill="currentColor"></path>
  </symbol>
  <symbol xmlns="http://www.w3.org/2000/svg" viewBox="0 0 94 12" id="ic_arrow_hor_big">
    <path d="M1 5C0.447715 5 0 5.44772 0 6C0 6.55228 0.447715 7 1 7V5ZM94 6L84 0.226497V11.7735L94 6ZM1 7H85V5H1V7Z" fill="currentColor"></path>
  </symbol>
  <symbol xmlns="http://www.w3.org/2000/svg" viewBox="0 0 10 9" id="ic_check">
    <path d="M9.23672 1.51387L9.23695 1.5141C9.44846 1.72561 9.44846 2.0684 9.23695 2.27991L4.02861 7.48825L4.02816 7.4887C3.92292 7.5942 3.78544 7.64701 3.64571 7.64701C3.50597 7.64701 3.36849 7.5942 3.26325 7.4887L3.2628 7.48825L0.658632 4.88408C0.447123 4.67257 0.447123 4.32978 0.658632 4.11827L0.658858 4.11804C0.869794 3.90684 1.21328 3.90684 1.42422 4.11804L1.42449 4.11832L3.2922 5.98551L3.64573 6.33894L3.99924 5.98548L8.47112 1.51412L8.47136 1.51387C8.6823 1.30267 9.02579 1.30267 9.23672 1.51387Z" fill="currentColor" stroke="currentColor"></path>
  </symbol>
  <symbol xmlns="http://www.w3.org/2000/svg" viewBox="0 0 46 45" id="ic_close">
    <line x1="1.35355" y1="0.646447" x2="45.3535" y2="44.6464" stroke="currentColor" fill="none"></line>
    <line y1="-0.5" x2="62.2254" y2="-0.5" transform="matrix(-0.707107 0.707107 0.707107 0.707107 45 1)" stroke="currentColor" fill="none"></line>
  </symbol>
  <symbol xmlns="http://www.w3.org/2000/svg" viewBox="0 0 36 34" id="ic_close2">
    <line y1="-1" x2="45" y2="-1" transform="matrix(-0.707107 0.707107 0.707107 0.707107 33.8203 2)" stroke="currentColor" stroke-width="2" fill="none"></line>
    <line x1="2.70711" y1="1.29289" x2="34.5269" y2="33.1127" stroke="currentColor" stroke-width="2" fill="none"></line>
  </symbol>
  <symbol xmlns="http://www.w3.org/2000/svg" viewBox="0 0 19 15" id="ic_email">
    <rect x="1" y="1" width="16.9474" height="13" rx="2" stroke="currentColor" stroke-width="2" fill="none"></rect>
    <path d="M2.47656 2L8.72399 9.13991C9.1224 9.59524 9.83073 9.59524 10.2291 9.13991L16.4766 2" stroke="currentColor" stroke-width="2" stroke-linecap="round" fill="none"></path>
  </symbol>
  <symbol xmlns="http://www.w3.org/2000/svg" viewBox="0 0 19 19" id="ic_link">
    <path fill-rule="evenodd" clip-rule="evenodd" d="M0.502441 0.539062H18.4609V18.4975H0.502441V0.539062ZM1.74095 1.77757V17.259H17.2224V1.77757H1.74095Z" fill="currentColor"></path>
    <path fill-rule="evenodd" clip-rule="evenodd" d="M5.14643 4.5645L13.5064 4.5645C14.0194 4.5645 14.4353 4.98038 14.4353 5.49339L14.4353 13.8533C14.4353 14.3663 14.0194 14.7822 13.5064 14.7822C12.9934 14.7822 12.5775 14.3663 12.5775 13.8533L12.5775 7.73591L5.49362 14.8198L4.17998 13.5061L11.2639 6.42227L5.14643 6.42227C4.63342 6.42227 4.21754 6.00639 4.21754 5.49339C4.21754 4.98038 4.63342 4.5645 5.14643 4.5645Z" fill="currentColor"></path>
  </symbol>
  <symbol xmlns="http://www.w3.org/2000/svg" viewBox="0 0 23 20" id="ic_menu">
    <rect width="23" height="2" fill="currentColor"></rect>
    <rect y="9" width="23" height="2" fill="currentColor"></rect>
    <rect y="18" width="23" height="2" fill="currentColor"></rect>
  </symbol>
  <symbol xmlns="http://www.w3.org/2000/svg" viewBox="0 0 34 34" id="ic_telegram">
    <path d="M28.7632 4.22888C28.3538 4.24669 27.9781 4.36443 27.6481 4.49451C27.3432 4.61458 26.2483 5.07477 24.5049 5.80603C22.7614 6.53729 20.4512 7.50685 17.9888 8.54252C13.0638 10.6139 7.52948 12.9439 4.69369 14.1373C4.5963 14.1778 4.20081 14.2989 3.764 14.6325C3.32618 14.9669 2.83984 15.6927 2.83984 16.4864C2.83984 17.1266 3.15946 17.7787 3.54541 18.1521C3.93136 18.5254 4.3225 18.6999 4.64941 18.83C5.60579 19.2108 8.56117 20.3911 9.8457 20.9052C10.2957 22.2537 11.3526 25.4303 11.5999 26.2121H11.5972C11.7984 26.8485 11.9944 27.2632 12.2668 27.6094C12.4029 27.7825 12.5654 27.9394 12.7648 28.0632C12.8413 28.1107 12.926 28.1476 13.0111 28.1822C13.0229 28.1872 13.0351 28.1885 13.047 28.1932L13.0138 28.1849C13.0385 28.1949 13.0606 28.2095 13.0858 28.2181C13.1267 28.2322 13.1551 28.2318 13.2103 28.243C13.4044 28.3028 13.5981 28.3427 13.7775 28.3427C14.5476 28.3427 15.0199 27.9248 15.0199 27.9248L15.0503 27.9027L18.3761 25.0887L22.4491 28.8545C22.5219 28.9575 23.1042 29.7483 24.4551 29.7483C25.2599 29.7483 25.899 29.3526 26.3062 28.9348C26.7133 28.5169 26.9669 28.0894 27.0809 27.5098V27.5043V27.5015C27.1601 27.0901 31.0708 7.46066 31.0708 7.46066L31.0625 7.49386C31.1839 6.9522 31.2197 6.42838 31.0763 5.89457C30.933 5.36076 30.5461 4.83982 30.0802 4.56645C29.6144 4.29308 29.1726 4.21108 28.7632 4.22888ZM28.2043 7.33061C28.0506 8.10184 24.5705 25.586 24.3444 26.7461L20.2992 23.008C19.2564 22.044 17.6305 22.0101 16.5472 22.925L14.4831 24.6709L15.5843 20.3656C15.5843 20.3656 23.1813 12.6757 23.6388 12.2281C24.0072 11.8697 24.0843 11.744 24.0843 11.6193C24.0843 11.4536 23.999 11.3344 23.8021 11.3344C23.625 11.3344 23.3845 11.504 23.257 11.5834C21.63 12.5978 14.6637 16.5678 11.29 18.4869C11.1633 18.411 11.0387 18.3322 10.8999 18.2766C9.79295 17.8335 7.66532 16.9805 6.42025 16.4836C9.35879 15.2469 14.3959 13.1276 19.0872 11.1545C21.5493 10.119 23.8588 9.14858 25.6006 8.41801C27.0709 7.80133 27.8378 7.48202 28.2043 7.33061ZM24.3001 26.9509H24.3029L24.3001 26.962C24.3025 26.9499 24.2985 26.9596 24.3001 26.9509Z" fill="currentColor"></path>
  </symbol>
</svg>